G04 #@! TF.GenerationSoftware,KiCad,Pcbnew,(5.1.4)-1*
G04 #@! TF.CreationDate,2024-08-25T15:45:26-04:00*
G04 #@! TF.ProjectId,smolboi-pcb,736d6f6c-626f-4692-9d70-63622e6b6963,rev?*
G04 #@! TF.SameCoordinates,Original*
G04 #@! TF.FileFunction,Legend,Bot*
G04 #@! TF.FilePolarity,Positive*
%FSLAX46Y46*%
G04 Gerber Fmt 4.6, Leading zero omitted, Abs format (unit mm)*
G04 Created by KiCad (PCBNEW (5.1.4)-1) date 2024-08-25 15:45:26*
%MOMM*%
%LPD*%
G04 APERTURE LIST*
%ADD10C,0.120000*%
%ADD11C,0.127000*%
%ADD12C,0.150000*%
G04 APERTURE END LIST*
D10*
X349176000Y-110310000D02*
X349666000Y-110800000D01*
X346276000Y-110310000D02*
X349176000Y-110310000D01*
X346276000Y-110310000D02*
X345786000Y-110800000D01*
X346276000Y-115750000D02*
X349176000Y-115750000D01*
X346276000Y-115750000D02*
X345786000Y-115260000D01*
X350446000Y-111990000D02*
X350446000Y-114070000D01*
X349176000Y-115750000D02*
X349666000Y-115260000D01*
X345006000Y-111990000D02*
X345006000Y-114070000D01*
D11*
X339000000Y-62860500D02*
X337946000Y-62860500D01*
X339000000Y-62098500D02*
X339000000Y-62860500D01*
X339000000Y-59939500D02*
X339000000Y-60701500D01*
X337946000Y-59939500D02*
X339000000Y-59939500D01*
D12*
X348600000Y-49350000D02*
X348600000Y-52250000D01*
X348600000Y-49350000D02*
X349900000Y-49350000D01*
X349900000Y-49350000D02*
X349900000Y-52250000D01*
X349900000Y-52250000D02*
X348600000Y-52250000D01*
D10*
X331225500Y-101392750D02*
X331225500Y-100942750D01*
X331225500Y-100942750D02*
X331675500Y-100942750D01*
X331225500Y-107712750D02*
X331225500Y-108162750D01*
X331225500Y-108162750D02*
X331675500Y-108162750D01*
X338445500Y-101392750D02*
X338445500Y-100942750D01*
X338445500Y-100942750D02*
X337995500Y-100942750D01*
X338445500Y-107712750D02*
X338445500Y-108162750D01*
X338445500Y-108162750D02*
X337995500Y-108162750D01*
X337995500Y-108162750D02*
X337995500Y-109452750D01*
X341736000Y-56482064D02*
X341736000Y-55277936D01*
X343556000Y-56482064D02*
X343556000Y-55277936D01*
X389620000Y-112740000D02*
X389620000Y-108840000D01*
X387620000Y-112740000D02*
X387620000Y-108840000D01*
X389620000Y-112740000D02*
X387620000Y-112740000D01*
X370570000Y-112740000D02*
X370570000Y-108840000D01*
X368570000Y-112740000D02*
X368570000Y-108840000D01*
X370570000Y-112740000D02*
X368570000Y-112740000D01*
X361660000Y-110125000D02*
X357760000Y-110125000D01*
X361660000Y-112125000D02*
X357760000Y-112125000D01*
X361660000Y-110125000D02*
X361660000Y-112125000D01*
X308340000Y-111470000D02*
X308340000Y-107570000D01*
X306340000Y-111470000D02*
X306340000Y-107570000D01*
X308340000Y-111470000D02*
X306340000Y-111470000D01*
X284845000Y-112740000D02*
X284845000Y-108840000D01*
X282845000Y-112740000D02*
X282845000Y-108840000D01*
X284845000Y-112740000D02*
X282845000Y-112740000D01*
X256905000Y-112740000D02*
X256905000Y-108840000D01*
X254905000Y-112740000D02*
X254905000Y-108840000D01*
X256905000Y-112740000D02*
X254905000Y-112740000D01*
X237220000Y-112740000D02*
X237220000Y-108840000D01*
X235220000Y-112740000D02*
X235220000Y-108840000D01*
X237220000Y-112740000D02*
X235220000Y-112740000D01*
X216265000Y-112740000D02*
X216265000Y-108840000D01*
X214265000Y-112740000D02*
X214265000Y-108840000D01*
X216265000Y-112740000D02*
X214265000Y-112740000D01*
X192135000Y-112740000D02*
X192135000Y-108840000D01*
X190135000Y-112740000D02*
X190135000Y-108840000D01*
X192135000Y-112740000D02*
X190135000Y-112740000D01*
X168640000Y-112740000D02*
X168640000Y-108840000D01*
X166640000Y-112740000D02*
X166640000Y-108840000D01*
X168640000Y-112740000D02*
X166640000Y-112740000D01*
X389620000Y-93055000D02*
X389620000Y-89155000D01*
X387620000Y-93055000D02*
X387620000Y-89155000D01*
X389620000Y-93055000D02*
X387620000Y-93055000D01*
X370570000Y-93055000D02*
X370570000Y-89155000D01*
X368570000Y-93055000D02*
X368570000Y-89155000D01*
X370570000Y-93055000D02*
X368570000Y-93055000D01*
X351520000Y-93690000D02*
X351520000Y-89790000D01*
X349520000Y-93690000D02*
X349520000Y-89790000D01*
X351520000Y-93690000D02*
X349520000Y-93690000D01*
X332470000Y-93055000D02*
X332470000Y-89155000D01*
X330470000Y-93055000D02*
X330470000Y-89155000D01*
X332470000Y-93055000D02*
X330470000Y-93055000D01*
X313420000Y-93055000D02*
X313420000Y-89155000D01*
X311420000Y-93055000D02*
X311420000Y-89155000D01*
X313420000Y-93055000D02*
X311420000Y-93055000D01*
X294370000Y-93055000D02*
X294370000Y-89155000D01*
X292370000Y-93055000D02*
X292370000Y-89155000D01*
X294370000Y-93055000D02*
X292370000Y-93055000D01*
X275320000Y-93055000D02*
X275320000Y-89155000D01*
X273320000Y-93055000D02*
X273320000Y-89155000D01*
X275320000Y-93055000D02*
X273320000Y-93055000D01*
X256270000Y-93055000D02*
X256270000Y-89155000D01*
X254270000Y-93055000D02*
X254270000Y-89155000D01*
X256270000Y-93055000D02*
X254270000Y-93055000D01*
X237220000Y-93055000D02*
X237220000Y-89155000D01*
X235220000Y-93055000D02*
X235220000Y-89155000D01*
X237220000Y-93055000D02*
X235220000Y-93055000D01*
X218170000Y-93055000D02*
X218170000Y-89155000D01*
X216170000Y-93055000D02*
X216170000Y-89155000D01*
X218170000Y-93055000D02*
X216170000Y-93055000D01*
X199120000Y-93690000D02*
X199120000Y-89790000D01*
X197120000Y-93690000D02*
X197120000Y-89790000D01*
X199120000Y-93690000D02*
X197120000Y-93690000D01*
X173085000Y-93690000D02*
X173085000Y-89790000D01*
X171085000Y-93690000D02*
X171085000Y-89790000D01*
X173085000Y-93690000D02*
X171085000Y-93690000D01*
X385175000Y-74640000D02*
X385175000Y-70740000D01*
X383175000Y-74640000D02*
X383175000Y-70740000D01*
X385175000Y-74640000D02*
X383175000Y-74640000D01*
X361680000Y-74640000D02*
X361680000Y-70740000D01*
X359680000Y-74640000D02*
X359680000Y-70740000D01*
X361680000Y-74640000D02*
X359680000Y-74640000D01*
X342630000Y-74640000D02*
X342630000Y-70740000D01*
X340630000Y-74640000D02*
X340630000Y-70740000D01*
X342630000Y-74640000D02*
X340630000Y-74640000D01*
X323580000Y-74640000D02*
X323580000Y-70740000D01*
X321580000Y-74640000D02*
X321580000Y-70740000D01*
X323580000Y-74640000D02*
X321580000Y-74640000D01*
X304530000Y-74640000D02*
X304530000Y-70740000D01*
X302530000Y-74640000D02*
X302530000Y-70740000D01*
X304530000Y-74640000D02*
X302530000Y-74640000D01*
X285480000Y-74640000D02*
X285480000Y-70740000D01*
X283480000Y-74640000D02*
X283480000Y-70740000D01*
X285480000Y-74640000D02*
X283480000Y-74640000D01*
X266430000Y-74640000D02*
X266430000Y-70740000D01*
X264430000Y-74640000D02*
X264430000Y-70740000D01*
X266430000Y-74640000D02*
X264430000Y-74640000D01*
X247380000Y-74640000D02*
X247380000Y-70740000D01*
X245380000Y-74640000D02*
X245380000Y-70740000D01*
X247380000Y-74640000D02*
X245380000Y-74640000D01*
X228330000Y-74640000D02*
X228330000Y-70740000D01*
X226330000Y-74640000D02*
X226330000Y-70740000D01*
X228330000Y-74640000D02*
X226330000Y-74640000D01*
X209280000Y-74640000D02*
X209280000Y-70740000D01*
X207280000Y-74640000D02*
X207280000Y-70740000D01*
X209280000Y-74640000D02*
X207280000Y-74640000D01*
X190230000Y-74640000D02*
X190230000Y-70740000D01*
X188230000Y-74640000D02*
X188230000Y-70740000D01*
X190230000Y-74640000D02*
X188230000Y-74640000D01*
X168640000Y-74640000D02*
X168640000Y-70740000D01*
X166640000Y-74640000D02*
X166640000Y-70740000D01*
X168640000Y-74640000D02*
X166640000Y-74640000D01*
X383270000Y-55590000D02*
X383270000Y-51690000D01*
X381270000Y-55590000D02*
X381270000Y-51690000D01*
X383270000Y-55590000D02*
X381270000Y-55590000D01*
X365470000Y-57420000D02*
X361570000Y-57420000D01*
X365470000Y-59420000D02*
X361570000Y-59420000D01*
X365470000Y-57420000D02*
X365470000Y-59420000D01*
X337550000Y-55590000D02*
X337550000Y-51690000D01*
X335550000Y-55590000D02*
X335550000Y-51690000D01*
X337550000Y-55590000D02*
X335550000Y-55590000D01*
X318500000Y-55590000D02*
X318500000Y-51690000D01*
X316500000Y-55590000D02*
X316500000Y-51690000D01*
X318500000Y-55590000D02*
X316500000Y-55590000D01*
X299450000Y-55590000D02*
X299450000Y-51690000D01*
X297450000Y-55590000D02*
X297450000Y-51690000D01*
X299450000Y-55590000D02*
X297450000Y-55590000D01*
X280400000Y-55590000D02*
X280400000Y-51690000D01*
X278400000Y-55590000D02*
X278400000Y-51690000D01*
X280400000Y-55590000D02*
X278400000Y-55590000D01*
X261350000Y-55590000D02*
X261350000Y-51690000D01*
X259350000Y-55590000D02*
X259350000Y-51690000D01*
X261350000Y-55590000D02*
X259350000Y-55590000D01*
X242300000Y-55590000D02*
X242300000Y-51690000D01*
X240300000Y-55590000D02*
X240300000Y-51690000D01*
X242300000Y-55590000D02*
X240300000Y-55590000D01*
X223250000Y-55590000D02*
X223250000Y-51690000D01*
X221250000Y-55590000D02*
X221250000Y-51690000D01*
X223250000Y-55590000D02*
X221250000Y-55590000D01*
X204200000Y-55590000D02*
X204200000Y-51690000D01*
X202200000Y-55590000D02*
X202200000Y-51690000D01*
X204200000Y-55590000D02*
X202200000Y-55590000D01*
X185150000Y-55590000D02*
X185150000Y-51690000D01*
X183150000Y-55590000D02*
X183150000Y-51690000D01*
X185150000Y-55590000D02*
X183150000Y-55590000D01*
X166100000Y-55590000D02*
X166100000Y-51690000D01*
X164100000Y-55590000D02*
X164100000Y-51690000D01*
X166100000Y-55590000D02*
X164100000Y-55590000D01*
D12*
X349535523Y-117034761D02*
X349392666Y-117082380D01*
X349154571Y-117082380D01*
X349059333Y-117034761D01*
X349011714Y-116987142D01*
X348964095Y-116891904D01*
X348964095Y-116796666D01*
X349011714Y-116701428D01*
X349059333Y-116653809D01*
X349154571Y-116606190D01*
X349345047Y-116558571D01*
X349440285Y-116510952D01*
X349487904Y-116463333D01*
X349535523Y-116368095D01*
X349535523Y-116272857D01*
X349487904Y-116177619D01*
X349440285Y-116130000D01*
X349345047Y-116082380D01*
X349106952Y-116082380D01*
X348964095Y-116130000D01*
X348630761Y-116082380D02*
X348392666Y-117082380D01*
X348202190Y-116368095D01*
X348011714Y-117082380D01*
X347773619Y-116082380D01*
X346964095Y-116415714D02*
X346964095Y-117082380D01*
X347202190Y-116034761D02*
X347440285Y-116749047D01*
X346821238Y-116749047D01*
X346535523Y-116082380D02*
X345868857Y-116082380D01*
X346297428Y-117082380D01*
X344177976Y-60777380D02*
X344654166Y-60777380D01*
X344654166Y-59777380D01*
X289385119Y-98829761D02*
X289242261Y-98877380D01*
X289004166Y-98877380D01*
X288908928Y-98829761D01*
X288861309Y-98782142D01*
X288813690Y-98686904D01*
X288813690Y-98591666D01*
X288861309Y-98496428D01*
X288908928Y-98448809D01*
X289004166Y-98401190D01*
X289194642Y-98353571D01*
X289289880Y-98305952D01*
X289337500Y-98258333D01*
X289385119Y-98163095D01*
X289385119Y-98067857D01*
X289337500Y-97972619D01*
X289289880Y-97925000D01*
X289194642Y-97877380D01*
X288956547Y-97877380D01*
X288813690Y-97925000D01*
X288385119Y-98210714D02*
X288385119Y-99210714D01*
X288385119Y-98258333D02*
X288289880Y-98210714D01*
X288099404Y-98210714D01*
X288004166Y-98258333D01*
X287956547Y-98305952D01*
X287908928Y-98401190D01*
X287908928Y-98686904D01*
X287956547Y-98782142D01*
X288004166Y-98829761D01*
X288099404Y-98877380D01*
X288289880Y-98877380D01*
X288385119Y-98829761D01*
X287051785Y-98877380D02*
X287051785Y-98353571D01*
X287099404Y-98258333D01*
X287194642Y-98210714D01*
X287385119Y-98210714D01*
X287480357Y-98258333D01*
X287051785Y-98829761D02*
X287147023Y-98877380D01*
X287385119Y-98877380D01*
X287480357Y-98829761D01*
X287527976Y-98734523D01*
X287527976Y-98639285D01*
X287480357Y-98544047D01*
X287385119Y-98496428D01*
X287147023Y-98496428D01*
X287051785Y-98448809D01*
X286147023Y-98829761D02*
X286242261Y-98877380D01*
X286432738Y-98877380D01*
X286527976Y-98829761D01*
X286575595Y-98782142D01*
X286623214Y-98686904D01*
X286623214Y-98401190D01*
X286575595Y-98305952D01*
X286527976Y-98258333D01*
X286432738Y-98210714D01*
X286242261Y-98210714D01*
X286147023Y-98258333D01*
X285337500Y-98829761D02*
X285432738Y-98877380D01*
X285623214Y-98877380D01*
X285718452Y-98829761D01*
X285766071Y-98734523D01*
X285766071Y-98353571D01*
X285718452Y-98258333D01*
X285623214Y-98210714D01*
X285432738Y-98210714D01*
X285337500Y-98258333D01*
X285289880Y-98353571D01*
X285289880Y-98448809D01*
X285766071Y-98544047D01*
X219066964Y-98591666D02*
X218590773Y-98591666D01*
X219162202Y-98877380D02*
X218828869Y-97877380D01*
X218495535Y-98877380D01*
X218019345Y-98877380D02*
X218114583Y-98829761D01*
X218162202Y-98734523D01*
X218162202Y-97877380D01*
X217781250Y-98210714D02*
X217400297Y-98210714D01*
X217638392Y-97877380D02*
X217638392Y-98734523D01*
X217590773Y-98829761D01*
X217495535Y-98877380D01*
X217400297Y-98877380D01*
X195587797Y-97877380D02*
X195349702Y-98877380D01*
X195159226Y-98163095D01*
X194968750Y-98877380D01*
X194730654Y-97877380D01*
X194349702Y-98877380D02*
X194349702Y-98210714D01*
X194349702Y-97877380D02*
X194397321Y-97925000D01*
X194349702Y-97972619D01*
X194302083Y-97925000D01*
X194349702Y-97877380D01*
X194349702Y-97972619D01*
X193873511Y-98210714D02*
X193873511Y-98877380D01*
X193873511Y-98305952D02*
X193825892Y-98258333D01*
X193730654Y-98210714D01*
X193587797Y-98210714D01*
X193492559Y-98258333D01*
X193444940Y-98353571D01*
X193444940Y-98877380D01*
X171203869Y-98782142D02*
X171251488Y-98829761D01*
X171394345Y-98877380D01*
X171489583Y-98877380D01*
X171632440Y-98829761D01*
X171727678Y-98734523D01*
X171775297Y-98639285D01*
X171822916Y-98448809D01*
X171822916Y-98305952D01*
X171775297Y-98115476D01*
X171727678Y-98020238D01*
X171632440Y-97925000D01*
X171489583Y-97877380D01*
X171394345Y-97877380D01*
X171251488Y-97925000D01*
X171203869Y-97972619D01*
X170918154Y-98210714D02*
X170537202Y-98210714D01*
X170775297Y-97877380D02*
X170775297Y-98734523D01*
X170727678Y-98829761D01*
X170632440Y-98877380D01*
X170537202Y-98877380D01*
X170203869Y-98877380D02*
X170203869Y-98210714D01*
X170203869Y-98401190D02*
X170156250Y-98305952D01*
X170108630Y-98258333D01*
X170013392Y-98210714D01*
X169918154Y-98210714D01*
X169441964Y-98877380D02*
X169537202Y-98829761D01*
X169584821Y-98734523D01*
X169584821Y-97877380D01*
X176966369Y-79779761D02*
X176823511Y-79827380D01*
X176585416Y-79827380D01*
X176490178Y-79779761D01*
X176442559Y-79732142D01*
X176394940Y-79636904D01*
X176394940Y-79541666D01*
X176442559Y-79446428D01*
X176490178Y-79398809D01*
X176585416Y-79351190D01*
X176775892Y-79303571D01*
X176871130Y-79255952D01*
X176918750Y-79208333D01*
X176966369Y-79113095D01*
X176966369Y-79017857D01*
X176918750Y-78922619D01*
X176871130Y-78875000D01*
X176775892Y-78827380D01*
X176537797Y-78827380D01*
X176394940Y-78875000D01*
X175966369Y-79827380D02*
X175966369Y-78827380D01*
X175537797Y-79827380D02*
X175537797Y-79303571D01*
X175585416Y-79208333D01*
X175680654Y-79160714D01*
X175823511Y-79160714D01*
X175918750Y-79208333D01*
X175966369Y-79255952D01*
X175061607Y-79827380D02*
X175061607Y-79160714D01*
X175061607Y-78827380D02*
X175109226Y-78875000D01*
X175061607Y-78922619D01*
X175013988Y-78875000D01*
X175061607Y-78827380D01*
X175061607Y-78922619D01*
X174728273Y-79160714D02*
X174347321Y-79160714D01*
X174585416Y-79827380D02*
X174585416Y-78970238D01*
X174537797Y-78875000D01*
X174442559Y-78827380D01*
X174347321Y-78827380D01*
X174156845Y-79160714D02*
X173775892Y-79160714D01*
X174013988Y-78827380D02*
X174013988Y-79684523D01*
X173966369Y-79779761D01*
X173871130Y-79827380D01*
X173775892Y-79827380D01*
X387302380Y-59777380D02*
X387397619Y-59967857D01*
X171846726Y-59777380D02*
X171275297Y-59777380D01*
X171561011Y-60777380D02*
X171561011Y-59777380D01*
X170513392Y-60777380D02*
X170513392Y-60253571D01*
X170561011Y-60158333D01*
X170656250Y-60110714D01*
X170846726Y-60110714D01*
X170941964Y-60158333D01*
X170513392Y-60729761D02*
X170608630Y-60777380D01*
X170846726Y-60777380D01*
X170941964Y-60729761D01*
X170989583Y-60634523D01*
X170989583Y-60539285D01*
X170941964Y-60444047D01*
X170846726Y-60396428D01*
X170608630Y-60396428D01*
X170513392Y-60348809D01*
X170037202Y-60777380D02*
X170037202Y-59777380D01*
X170037202Y-60158333D02*
X169941964Y-60110714D01*
X169751488Y-60110714D01*
X169656250Y-60158333D01*
X169608630Y-60205952D01*
X169561011Y-60301190D01*
X169561011Y-60586904D01*
X169608630Y-60682142D01*
X169656250Y-60729761D01*
X169751488Y-60777380D01*
X169941964Y-60777380D01*
X170037202Y-60729761D01*
X386159226Y-41203571D02*
X386016369Y-41251190D01*
X385968750Y-41298809D01*
X385921130Y-41394047D01*
X385921130Y-41536904D01*
X385968750Y-41632142D01*
X386016369Y-41679761D01*
X386111607Y-41727380D01*
X386492559Y-41727380D01*
X386492559Y-40727380D01*
X386159226Y-40727380D01*
X386063988Y-40775000D01*
X386016369Y-40822619D01*
X385968750Y-40917857D01*
X385968750Y-41013095D01*
X386016369Y-41108333D01*
X386063988Y-41155952D01*
X386159226Y-41203571D01*
X386492559Y-41203571D01*
X385492559Y-41727380D02*
X385492559Y-40727380D01*
X385397321Y-41346428D02*
X385111607Y-41727380D01*
X385111607Y-41060714D02*
X385492559Y-41441666D01*
X384730654Y-41679761D02*
X384635416Y-41727380D01*
X384444940Y-41727380D01*
X384349702Y-41679761D01*
X384302083Y-41584523D01*
X384302083Y-41536904D01*
X384349702Y-41441666D01*
X384444940Y-41394047D01*
X384587797Y-41394047D01*
X384683035Y-41346428D01*
X384730654Y-41251190D01*
X384730654Y-41203571D01*
X384683035Y-41108333D01*
X384587797Y-41060714D01*
X384444940Y-41060714D01*
X384349702Y-41108333D01*
X383873511Y-41060714D02*
X383873511Y-42060714D01*
X383873511Y-41108333D02*
X383778273Y-41060714D01*
X383587797Y-41060714D01*
X383492559Y-41108333D01*
X383444940Y-41155952D01*
X383397321Y-41251190D01*
X383397321Y-41536904D01*
X383444940Y-41632142D01*
X383492559Y-41679761D01*
X383587797Y-41727380D01*
X383778273Y-41727380D01*
X383873511Y-41679761D01*
X220995833Y-78827380D02*
X220329166Y-79827380D01*
X220329166Y-78827380D02*
X220995833Y-79827380D01*
X259643452Y-98353571D02*
X259976785Y-98353571D01*
X259976785Y-98877380D02*
X259976785Y-97877380D01*
X259500595Y-97877380D01*
X259119642Y-98877380D02*
X259119642Y-97877380D01*
X258881547Y-97877380D01*
X258738690Y-97925000D01*
X258643452Y-98020238D01*
X258595833Y-98115476D01*
X258548214Y-98305952D01*
X258548214Y-98448809D01*
X258595833Y-98639285D01*
X258643452Y-98734523D01*
X258738690Y-98829761D01*
X258881547Y-98877380D01*
X259119642Y-98877380D01*
X258119642Y-98877380D02*
X258119642Y-97877380D01*
X257548214Y-98877380D01*
X257548214Y-97877380D01*
X393802976Y-98353571D02*
X393469642Y-98353571D01*
X393326785Y-98877380D02*
X393802976Y-98877380D01*
X393802976Y-97877380D01*
X393326785Y-97877380D01*
X392898214Y-98210714D02*
X392898214Y-98877380D01*
X392898214Y-98305952D02*
X392850595Y-98258333D01*
X392755357Y-98210714D01*
X392612500Y-98210714D01*
X392517261Y-98258333D01*
X392469642Y-98353571D01*
X392469642Y-98877380D01*
X392136309Y-98210714D02*
X391755357Y-98210714D01*
X391993452Y-97877380D02*
X391993452Y-98734523D01*
X391945833Y-98829761D01*
X391850595Y-98877380D01*
X391755357Y-98877380D01*
X391041071Y-98829761D02*
X391136309Y-98877380D01*
X391326785Y-98877380D01*
X391422023Y-98829761D01*
X391469642Y-98734523D01*
X391469642Y-98353571D01*
X391422023Y-98258333D01*
X391326785Y-98210714D01*
X391136309Y-98210714D01*
X391041071Y-98258333D01*
X390993452Y-98353571D01*
X390993452Y-98448809D01*
X391469642Y-98544047D01*
X390564880Y-98877380D02*
X390564880Y-98210714D01*
X390564880Y-98401190D02*
X390517261Y-98305952D01*
X390469642Y-98258333D01*
X390374404Y-98210714D01*
X390279166Y-98210714D01*
X374014880Y-98877380D02*
X374014880Y-97877380D01*
X373776785Y-97877380D01*
X373633928Y-97925000D01*
X373538690Y-98020238D01*
X373491071Y-98115476D01*
X373443452Y-98305952D01*
X373443452Y-98448809D01*
X373491071Y-98639285D01*
X373538690Y-98734523D01*
X373633928Y-98829761D01*
X373776785Y-98877380D01*
X374014880Y-98877380D01*
X372633928Y-98829761D02*
X372729166Y-98877380D01*
X372919642Y-98877380D01*
X373014880Y-98829761D01*
X373062500Y-98734523D01*
X373062500Y-98353571D01*
X373014880Y-98258333D01*
X372919642Y-98210714D01*
X372729166Y-98210714D01*
X372633928Y-98258333D01*
X372586309Y-98353571D01*
X372586309Y-98448809D01*
X373062500Y-98544047D01*
X372014880Y-98877380D02*
X372110119Y-98829761D01*
X372157738Y-98734523D01*
X372157738Y-97877380D01*
X354702976Y-98877380D02*
X355179166Y-98877380D01*
X355179166Y-97877380D01*
X353988690Y-98829761D02*
X354083928Y-98877380D01*
X354274404Y-98877380D01*
X354369642Y-98829761D01*
X354417261Y-98734523D01*
X354417261Y-98353571D01*
X354369642Y-98258333D01*
X354274404Y-98210714D01*
X354083928Y-98210714D01*
X353988690Y-98258333D01*
X353941071Y-98353571D01*
X353941071Y-98448809D01*
X354417261Y-98544047D01*
X353655357Y-98210714D02*
X353274404Y-98210714D01*
X353512500Y-98877380D02*
X353512500Y-98020238D01*
X353464880Y-97925000D01*
X353369642Y-97877380D01*
X353274404Y-97877380D01*
X353083928Y-98210714D02*
X352702976Y-98210714D01*
X352941071Y-97877380D02*
X352941071Y-98734523D01*
X352893452Y-98829761D01*
X352798214Y-98877380D01*
X352702976Y-98877380D01*
X316507738Y-98353571D02*
X316841071Y-98353571D01*
X316841071Y-98877380D02*
X316841071Y-97877380D01*
X316364880Y-97877380D01*
X315412500Y-98877380D02*
X315745833Y-98401190D01*
X315983928Y-98877380D02*
X315983928Y-97877380D01*
X315602976Y-97877380D01*
X315507738Y-97925000D01*
X315460119Y-97972619D01*
X315412500Y-98067857D01*
X315412500Y-98210714D01*
X315460119Y-98305952D01*
X315507738Y-98353571D01*
X315602976Y-98401190D01*
X315983928Y-98401190D01*
X314983928Y-98877380D02*
X314983928Y-97877380D01*
X240593452Y-98353571D02*
X240926785Y-98353571D01*
X240926785Y-98877380D02*
X240926785Y-97877380D01*
X240450595Y-97877380D01*
X240069642Y-97877380D02*
X240069642Y-98686904D01*
X240022023Y-98782142D01*
X239974404Y-98829761D01*
X239879166Y-98877380D01*
X239688690Y-98877380D01*
X239593452Y-98829761D01*
X239545833Y-98782142D01*
X239498214Y-98686904D01*
X239498214Y-97877380D01*
X239022023Y-98877380D02*
X239022023Y-97877380D01*
X238641071Y-97877380D01*
X238545833Y-97925000D01*
X238498214Y-97972619D01*
X238450595Y-98067857D01*
X238450595Y-98210714D01*
X238498214Y-98305952D01*
X238545833Y-98353571D01*
X238641071Y-98401190D01*
X239022023Y-98401190D01*
X393469642Y-79732142D02*
X393517261Y-79779761D01*
X393660119Y-79827380D01*
X393755357Y-79827380D01*
X393898214Y-79779761D01*
X393993452Y-79684523D01*
X394041071Y-79589285D01*
X394088690Y-79398809D01*
X394088690Y-79255952D01*
X394041071Y-79065476D01*
X393993452Y-78970238D01*
X393898214Y-78875000D01*
X393755357Y-78827380D01*
X393660119Y-78827380D01*
X393517261Y-78875000D01*
X393469642Y-78922619D01*
X393041071Y-79160714D02*
X393041071Y-80160714D01*
X393041071Y-79208333D02*
X392945833Y-79160714D01*
X392755357Y-79160714D01*
X392660119Y-79208333D01*
X392612500Y-79255952D01*
X392564880Y-79351190D01*
X392564880Y-79636904D01*
X392612500Y-79732142D01*
X392660119Y-79779761D01*
X392755357Y-79827380D01*
X392945833Y-79827380D01*
X393041071Y-79779761D01*
X392183928Y-79779761D02*
X392088690Y-79827380D01*
X391898214Y-79827380D01*
X391802976Y-79779761D01*
X391755357Y-79684523D01*
X391755357Y-79636904D01*
X391802976Y-79541666D01*
X391898214Y-79494047D01*
X392041071Y-79494047D01*
X392136309Y-79446428D01*
X392183928Y-79351190D01*
X392183928Y-79303571D01*
X392136309Y-79208333D01*
X392041071Y-79160714D01*
X391898214Y-79160714D01*
X391802976Y-79208333D01*
X390850595Y-79827380D02*
X391326785Y-79827380D01*
X391326785Y-78827380D01*
X390517261Y-79827380D02*
X390517261Y-78827380D01*
X390422023Y-79446428D02*
X390136309Y-79827380D01*
X390136309Y-79160714D02*
X390517261Y-79541666D01*
X372633928Y-78779761D02*
X373491071Y-80065476D01*
X354012500Y-79732142D02*
X353964880Y-79779761D01*
X354012500Y-79827380D01*
X354060119Y-79779761D01*
X354012500Y-79732142D01*
X354012500Y-79827380D01*
X334914880Y-79779761D02*
X334914880Y-79827380D01*
X334962500Y-79922619D01*
X335010119Y-79970238D01*
X316245833Y-79827380D02*
X316245833Y-78827380D01*
X315912500Y-79541666D01*
X315579166Y-78827380D01*
X315579166Y-79827380D01*
X297148214Y-79827380D02*
X297148214Y-78827380D01*
X296576785Y-79827380D01*
X296576785Y-78827380D01*
X277741071Y-79303571D02*
X277598214Y-79351190D01*
X277550595Y-79398809D01*
X277502976Y-79494047D01*
X277502976Y-79636904D01*
X277550595Y-79732142D01*
X277598214Y-79779761D01*
X277693452Y-79827380D01*
X278074404Y-79827380D01*
X278074404Y-78827380D01*
X277741071Y-78827380D01*
X277645833Y-78875000D01*
X277598214Y-78922619D01*
X277550595Y-79017857D01*
X277550595Y-79113095D01*
X277598214Y-79208333D01*
X277645833Y-79255952D01*
X277741071Y-79303571D01*
X278074404Y-79303571D01*
X259095833Y-78827380D02*
X258762500Y-79827380D01*
X258429166Y-78827380D01*
X239402976Y-79732142D02*
X239450595Y-79779761D01*
X239593452Y-79827380D01*
X239688690Y-79827380D01*
X239831547Y-79779761D01*
X239926785Y-79684523D01*
X239974404Y-79589285D01*
X240022023Y-79398809D01*
X240022023Y-79255952D01*
X239974404Y-79065476D01*
X239926785Y-78970238D01*
X239831547Y-78875000D01*
X239688690Y-78827380D01*
X239593452Y-78827380D01*
X239450595Y-78875000D01*
X239402976Y-78922619D01*
X201945833Y-78827380D02*
X201279166Y-78827380D01*
X201945833Y-79827380D01*
X201279166Y-79827380D01*
X363489880Y-60729761D02*
X363489880Y-60777380D01*
X363537500Y-60872619D01*
X363585119Y-60920238D01*
X363537500Y-60158333D02*
X363489880Y-60205952D01*
X363537500Y-60253571D01*
X363585119Y-60205952D01*
X363537500Y-60158333D01*
X363537500Y-60253571D01*
X325699404Y-60777380D02*
X325699404Y-59777380D01*
X325127976Y-60777380D02*
X325556547Y-60205952D01*
X325127976Y-59777380D02*
X325699404Y-60348809D01*
X306244642Y-59777380D02*
X306244642Y-60491666D01*
X306292261Y-60634523D01*
X306387500Y-60729761D01*
X306530357Y-60777380D01*
X306625595Y-60777380D01*
X287623214Y-60777380D02*
X287623214Y-59777380D01*
X287623214Y-60253571D02*
X287051785Y-60253571D01*
X287051785Y-60777380D02*
X287051785Y-59777380D01*
X268025595Y-59825000D02*
X268120833Y-59777380D01*
X268263690Y-59777380D01*
X268406547Y-59825000D01*
X268501785Y-59920238D01*
X268549404Y-60015476D01*
X268597023Y-60205952D01*
X268597023Y-60348809D01*
X268549404Y-60539285D01*
X268501785Y-60634523D01*
X268406547Y-60729761D01*
X268263690Y-60777380D01*
X268168452Y-60777380D01*
X268025595Y-60729761D01*
X267977976Y-60682142D01*
X267977976Y-60348809D01*
X268168452Y-60348809D01*
X249094642Y-60253571D02*
X249427976Y-60253571D01*
X249427976Y-60777380D02*
X249427976Y-59777380D01*
X248951785Y-59777380D01*
X230449404Y-60777380D02*
X230449404Y-59777380D01*
X230211309Y-59777380D01*
X230068452Y-59825000D01*
X229973214Y-59920238D01*
X229925595Y-60015476D01*
X229877976Y-60205952D01*
X229877976Y-60348809D01*
X229925595Y-60539285D01*
X229973214Y-60634523D01*
X230068452Y-60729761D01*
X230211309Y-60777380D01*
X230449404Y-60777380D01*
X211423214Y-60729761D02*
X211280357Y-60777380D01*
X211042261Y-60777380D01*
X210947023Y-60729761D01*
X210899404Y-60682142D01*
X210851785Y-60586904D01*
X210851785Y-60491666D01*
X210899404Y-60396428D01*
X210947023Y-60348809D01*
X211042261Y-60301190D01*
X211232738Y-60253571D01*
X211327976Y-60205952D01*
X211375595Y-60158333D01*
X211423214Y-60063095D01*
X211423214Y-59967857D01*
X211375595Y-59872619D01*
X211327976Y-59825000D01*
X211232738Y-59777380D01*
X210994642Y-59777380D01*
X210851785Y-59825000D01*
X192325595Y-60491666D02*
X191849404Y-60491666D01*
X192420833Y-60777380D02*
X192087500Y-59777380D01*
X191754166Y-60777380D01*
X359036904Y-41727380D02*
X359036904Y-40727380D01*
X358655952Y-40727380D01*
X358560714Y-40775000D01*
X358513095Y-40822619D01*
X358465476Y-40917857D01*
X358465476Y-41060714D01*
X358513095Y-41155952D01*
X358560714Y-41203571D01*
X358655952Y-41251190D01*
X359036904Y-41251190D01*
X339820238Y-40727380D02*
X339629761Y-40727380D01*
X339534523Y-40775000D01*
X339439285Y-40870238D01*
X339391666Y-41060714D01*
X339391666Y-41394047D01*
X339439285Y-41584523D01*
X339534523Y-41679761D01*
X339629761Y-41727380D01*
X339820238Y-41727380D01*
X339915476Y-41679761D01*
X340010714Y-41584523D01*
X340058333Y-41394047D01*
X340058333Y-41060714D01*
X340010714Y-40870238D01*
X339915476Y-40775000D01*
X339820238Y-40727380D01*
X350988095Y-43246380D02*
X350988095Y-44055904D01*
X350940476Y-44151142D01*
X350892857Y-44198761D01*
X350797619Y-44246380D01*
X350607142Y-44246380D01*
X350511904Y-44198761D01*
X350464285Y-44151142D01*
X350416666Y-44055904D01*
X350416666Y-43246380D01*
X349988095Y-44198761D02*
X349845238Y-44246380D01*
X349607142Y-44246380D01*
X349511904Y-44198761D01*
X349464285Y-44151142D01*
X349416666Y-44055904D01*
X349416666Y-43960666D01*
X349464285Y-43865428D01*
X349511904Y-43817809D01*
X349607142Y-43770190D01*
X349797619Y-43722571D01*
X349892857Y-43674952D01*
X349940476Y-43627333D01*
X349988095Y-43532095D01*
X349988095Y-43436857D01*
X349940476Y-43341619D01*
X349892857Y-43294000D01*
X349797619Y-43246380D01*
X349559523Y-43246380D01*
X349416666Y-43294000D01*
X348654761Y-43722571D02*
X348511904Y-43770190D01*
X348464285Y-43817809D01*
X348416666Y-43913047D01*
X348416666Y-44055904D01*
X348464285Y-44151142D01*
X348511904Y-44198761D01*
X348607142Y-44246380D01*
X348988095Y-44246380D01*
X348988095Y-43246380D01*
X348654761Y-43246380D01*
X348559523Y-43294000D01*
X348511904Y-43341619D01*
X348464285Y-43436857D01*
X348464285Y-43532095D01*
X348511904Y-43627333D01*
X348559523Y-43674952D01*
X348654761Y-43722571D01*
X348988095Y-43722571D01*
X347464285Y-44246380D02*
X348035714Y-44246380D01*
X347750000Y-44246380D02*
X347750000Y-43246380D01*
X347845238Y-43389238D01*
X347940476Y-43484476D01*
X348035714Y-43532095D01*
X340169727Y-60547628D02*
X340737420Y-60547628D01*
X340804207Y-60581022D01*
X340837601Y-60614415D01*
X340870994Y-60681203D01*
X340870994Y-60814777D01*
X340837601Y-60881565D01*
X340804207Y-60914958D01*
X340737420Y-60948352D01*
X340169727Y-60948352D01*
X340169727Y-61215501D02*
X340169727Y-61649619D01*
X340436877Y-61415863D01*
X340436877Y-61516044D01*
X340470270Y-61582832D01*
X340503664Y-61616225D01*
X340570451Y-61649619D01*
X340737420Y-61649619D01*
X340804207Y-61616225D01*
X340837601Y-61582832D01*
X340870994Y-61516044D01*
X340870994Y-61315682D01*
X340837601Y-61248895D01*
X340804207Y-61215501D01*
X350011904Y-52702380D02*
X350011904Y-53511904D01*
X349964285Y-53607142D01*
X349916666Y-53654761D01*
X349821428Y-53702380D01*
X349630952Y-53702380D01*
X349535714Y-53654761D01*
X349488095Y-53607142D01*
X349440476Y-53511904D01*
X349440476Y-52702380D01*
X349011904Y-52797619D02*
X348964285Y-52750000D01*
X348869047Y-52702380D01*
X348630952Y-52702380D01*
X348535714Y-52750000D01*
X348488095Y-52797619D01*
X348440476Y-52892857D01*
X348440476Y-52988095D01*
X348488095Y-53130952D01*
X349059523Y-53702380D01*
X348440476Y-53702380D01*
X340137880Y-103790845D02*
X340947404Y-103790845D01*
X341042642Y-103838464D01*
X341090261Y-103886083D01*
X341137880Y-103981321D01*
X341137880Y-104171797D01*
X341090261Y-104267035D01*
X341042642Y-104314654D01*
X340947404Y-104362273D01*
X340137880Y-104362273D01*
X341137880Y-105362273D02*
X341137880Y-104790845D01*
X341137880Y-105076559D02*
X340137880Y-105076559D01*
X340280738Y-104981321D01*
X340375976Y-104886083D01*
X340423595Y-104790845D01*
X339388380Y-111085333D02*
X338912190Y-110752000D01*
X339388380Y-110513904D02*
X338388380Y-110513904D01*
X338388380Y-110894857D01*
X338436000Y-110990095D01*
X338483619Y-111037714D01*
X338578857Y-111085333D01*
X338721714Y-111085333D01*
X338816952Y-111037714D01*
X338864571Y-110990095D01*
X338912190Y-110894857D01*
X338912190Y-110513904D01*
X338388380Y-111990095D02*
X338388380Y-111513904D01*
X338864571Y-111466285D01*
X338816952Y-111513904D01*
X338769333Y-111609142D01*
X338769333Y-111847238D01*
X338816952Y-111942476D01*
X338864571Y-111990095D01*
X338959809Y-112037714D01*
X339197904Y-112037714D01*
X339293142Y-111990095D01*
X339340761Y-111942476D01*
X339388380Y-111847238D01*
X339388380Y-111609142D01*
X339340761Y-111513904D01*
X339293142Y-111466285D01*
X346682380Y-46433333D02*
X346206190Y-46100000D01*
X346682380Y-45861904D02*
X345682380Y-45861904D01*
X345682380Y-46242857D01*
X345730000Y-46338095D01*
X345777619Y-46385714D01*
X345872857Y-46433333D01*
X346015714Y-46433333D01*
X346110952Y-46385714D01*
X346158571Y-46338095D01*
X346206190Y-46242857D01*
X346206190Y-45861904D01*
X346015714Y-47290476D02*
X346682380Y-47290476D01*
X345634761Y-47052380D02*
X346349047Y-46814285D01*
X346349047Y-47433333D01*
X350282380Y-46433333D02*
X349806190Y-46100000D01*
X350282380Y-45861904D02*
X349282380Y-45861904D01*
X349282380Y-46242857D01*
X349330000Y-46338095D01*
X349377619Y-46385714D01*
X349472857Y-46433333D01*
X349615714Y-46433333D01*
X349710952Y-46385714D01*
X349758571Y-46338095D01*
X349806190Y-46242857D01*
X349806190Y-45861904D01*
X349282380Y-46766666D02*
X349282380Y-47385714D01*
X349663333Y-47052380D01*
X349663333Y-47195238D01*
X349710952Y-47290476D01*
X349758571Y-47338095D01*
X349853809Y-47385714D01*
X350091904Y-47385714D01*
X350187142Y-47338095D01*
X350234761Y-47290476D01*
X350282380Y-47195238D01*
X350282380Y-46909523D01*
X350234761Y-46814285D01*
X350187142Y-46766666D01*
X334371880Y-96099333D02*
X333895690Y-95766000D01*
X334371880Y-95527904D02*
X333371880Y-95527904D01*
X333371880Y-95908857D01*
X333419500Y-96004095D01*
X333467119Y-96051714D01*
X333562357Y-96099333D01*
X333705214Y-96099333D01*
X333800452Y-96051714D01*
X333848071Y-96004095D01*
X333895690Y-95908857D01*
X333895690Y-95527904D01*
X333467119Y-96480285D02*
X333419500Y-96527904D01*
X333371880Y-96623142D01*
X333371880Y-96861238D01*
X333419500Y-96956476D01*
X333467119Y-97004095D01*
X333562357Y-97051714D01*
X333657595Y-97051714D01*
X333800452Y-97004095D01*
X334371880Y-96432666D01*
X334371880Y-97051714D01*
X338235880Y-96099333D02*
X337759690Y-95766000D01*
X338235880Y-95527904D02*
X337235880Y-95527904D01*
X337235880Y-95908857D01*
X337283500Y-96004095D01*
X337331119Y-96051714D01*
X337426357Y-96099333D01*
X337569214Y-96099333D01*
X337664452Y-96051714D01*
X337712071Y-96004095D01*
X337759690Y-95908857D01*
X337759690Y-95527904D01*
X338235880Y-97051714D02*
X338235880Y-96480285D01*
X338235880Y-96766000D02*
X337235880Y-96766000D01*
X337378738Y-96670761D01*
X337473976Y-96575523D01*
X337521595Y-96480285D01*
X344394571Y-55546666D02*
X344394571Y-55213333D01*
X344918380Y-55213333D02*
X343918380Y-55213333D01*
X343918380Y-55689523D01*
X344918380Y-56594285D02*
X344918380Y-56022857D01*
X344918380Y-56308571D02*
X343918380Y-56308571D01*
X344061238Y-56213333D01*
X344156476Y-56118095D01*
X344204095Y-56022857D01*
X391072380Y-109275714D02*
X390072380Y-109275714D01*
X390072380Y-109513809D01*
X390120000Y-109656666D01*
X390215238Y-109751904D01*
X390310476Y-109799523D01*
X390500952Y-109847142D01*
X390643809Y-109847142D01*
X390834285Y-109799523D01*
X390929523Y-109751904D01*
X391024761Y-109656666D01*
X391072380Y-109513809D01*
X391072380Y-109275714D01*
X390405714Y-110704285D02*
X391072380Y-110704285D01*
X390024761Y-110466190D02*
X390739047Y-110228095D01*
X390739047Y-110847142D01*
X390072380Y-111656666D02*
X390072380Y-111466190D01*
X390120000Y-111370952D01*
X390167619Y-111323333D01*
X390310476Y-111228095D01*
X390500952Y-111180476D01*
X390881904Y-111180476D01*
X390977142Y-111228095D01*
X391024761Y-111275714D01*
X391072380Y-111370952D01*
X391072380Y-111561428D01*
X391024761Y-111656666D01*
X390977142Y-111704285D01*
X390881904Y-111751904D01*
X390643809Y-111751904D01*
X390548571Y-111704285D01*
X390500952Y-111656666D01*
X390453333Y-111561428D01*
X390453333Y-111370952D01*
X390500952Y-111275714D01*
X390548571Y-111228095D01*
X390643809Y-111180476D01*
X372022380Y-109275714D02*
X371022380Y-109275714D01*
X371022380Y-109513809D01*
X371070000Y-109656666D01*
X371165238Y-109751904D01*
X371260476Y-109799523D01*
X371450952Y-109847142D01*
X371593809Y-109847142D01*
X371784285Y-109799523D01*
X371879523Y-109751904D01*
X371974761Y-109656666D01*
X372022380Y-109513809D01*
X372022380Y-109275714D01*
X371355714Y-110704285D02*
X372022380Y-110704285D01*
X370974761Y-110466190D02*
X371689047Y-110228095D01*
X371689047Y-110847142D01*
X371022380Y-111704285D02*
X371022380Y-111228095D01*
X371498571Y-111180476D01*
X371450952Y-111228095D01*
X371403333Y-111323333D01*
X371403333Y-111561428D01*
X371450952Y-111656666D01*
X371498571Y-111704285D01*
X371593809Y-111751904D01*
X371831904Y-111751904D01*
X371927142Y-111704285D01*
X371974761Y-111656666D01*
X372022380Y-111561428D01*
X372022380Y-111323333D01*
X371974761Y-111228095D01*
X371927142Y-111180476D01*
X360624285Y-109577380D02*
X360624285Y-108577380D01*
X360386190Y-108577380D01*
X360243333Y-108625000D01*
X360148095Y-108720238D01*
X360100476Y-108815476D01*
X360052857Y-109005952D01*
X360052857Y-109148809D01*
X360100476Y-109339285D01*
X360148095Y-109434523D01*
X360243333Y-109529761D01*
X360386190Y-109577380D01*
X360624285Y-109577380D01*
X359195714Y-108910714D02*
X359195714Y-109577380D01*
X359433809Y-108529761D02*
X359671904Y-109244047D01*
X359052857Y-109244047D01*
X358243333Y-108910714D02*
X358243333Y-109577380D01*
X358481428Y-108529761D02*
X358719523Y-109244047D01*
X358100476Y-109244047D01*
X309792380Y-108005714D02*
X308792380Y-108005714D01*
X308792380Y-108243809D01*
X308840000Y-108386666D01*
X308935238Y-108481904D01*
X309030476Y-108529523D01*
X309220952Y-108577142D01*
X309363809Y-108577142D01*
X309554285Y-108529523D01*
X309649523Y-108481904D01*
X309744761Y-108386666D01*
X309792380Y-108243809D01*
X309792380Y-108005714D01*
X309125714Y-109434285D02*
X309792380Y-109434285D01*
X308744761Y-109196190D02*
X309459047Y-108958095D01*
X309459047Y-109577142D01*
X308792380Y-109862857D02*
X308792380Y-110481904D01*
X309173333Y-110148571D01*
X309173333Y-110291428D01*
X309220952Y-110386666D01*
X309268571Y-110434285D01*
X309363809Y-110481904D01*
X309601904Y-110481904D01*
X309697142Y-110434285D01*
X309744761Y-110386666D01*
X309792380Y-110291428D01*
X309792380Y-110005714D01*
X309744761Y-109910476D01*
X309697142Y-109862857D01*
X286297380Y-109275714D02*
X285297380Y-109275714D01*
X285297380Y-109513809D01*
X285345000Y-109656666D01*
X285440238Y-109751904D01*
X285535476Y-109799523D01*
X285725952Y-109847142D01*
X285868809Y-109847142D01*
X286059285Y-109799523D01*
X286154523Y-109751904D01*
X286249761Y-109656666D01*
X286297380Y-109513809D01*
X286297380Y-109275714D01*
X285630714Y-110704285D02*
X286297380Y-110704285D01*
X285249761Y-110466190D02*
X285964047Y-110228095D01*
X285964047Y-110847142D01*
X285392619Y-111180476D02*
X285345000Y-111228095D01*
X285297380Y-111323333D01*
X285297380Y-111561428D01*
X285345000Y-111656666D01*
X285392619Y-111704285D01*
X285487857Y-111751904D01*
X285583095Y-111751904D01*
X285725952Y-111704285D01*
X286297380Y-111132857D01*
X286297380Y-111751904D01*
X258357380Y-109275714D02*
X257357380Y-109275714D01*
X257357380Y-109513809D01*
X257405000Y-109656666D01*
X257500238Y-109751904D01*
X257595476Y-109799523D01*
X257785952Y-109847142D01*
X257928809Y-109847142D01*
X258119285Y-109799523D01*
X258214523Y-109751904D01*
X258309761Y-109656666D01*
X258357380Y-109513809D01*
X258357380Y-109275714D01*
X257690714Y-110704285D02*
X258357380Y-110704285D01*
X257309761Y-110466190D02*
X258024047Y-110228095D01*
X258024047Y-110847142D01*
X258357380Y-111751904D02*
X258357380Y-111180476D01*
X258357380Y-111466190D02*
X257357380Y-111466190D01*
X257500238Y-111370952D01*
X257595476Y-111275714D01*
X257643095Y-111180476D01*
X238672380Y-109275714D02*
X237672380Y-109275714D01*
X237672380Y-109513809D01*
X237720000Y-109656666D01*
X237815238Y-109751904D01*
X237910476Y-109799523D01*
X238100952Y-109847142D01*
X238243809Y-109847142D01*
X238434285Y-109799523D01*
X238529523Y-109751904D01*
X238624761Y-109656666D01*
X238672380Y-109513809D01*
X238672380Y-109275714D01*
X238005714Y-110704285D02*
X238672380Y-110704285D01*
X237624761Y-110466190D02*
X238339047Y-110228095D01*
X238339047Y-110847142D01*
X237672380Y-111418571D02*
X237672380Y-111513809D01*
X237720000Y-111609047D01*
X237767619Y-111656666D01*
X237862857Y-111704285D01*
X238053333Y-111751904D01*
X238291428Y-111751904D01*
X238481904Y-111704285D01*
X238577142Y-111656666D01*
X238624761Y-111609047D01*
X238672380Y-111513809D01*
X238672380Y-111418571D01*
X238624761Y-111323333D01*
X238577142Y-111275714D01*
X238481904Y-111228095D01*
X238291428Y-111180476D01*
X238053333Y-111180476D01*
X237862857Y-111228095D01*
X237767619Y-111275714D01*
X237720000Y-111323333D01*
X237672380Y-111418571D01*
X217717380Y-109275714D02*
X216717380Y-109275714D01*
X216717380Y-109513809D01*
X216765000Y-109656666D01*
X216860238Y-109751904D01*
X216955476Y-109799523D01*
X217145952Y-109847142D01*
X217288809Y-109847142D01*
X217479285Y-109799523D01*
X217574523Y-109751904D01*
X217669761Y-109656666D01*
X217717380Y-109513809D01*
X217717380Y-109275714D01*
X216717380Y-110180476D02*
X216717380Y-110799523D01*
X217098333Y-110466190D01*
X217098333Y-110609047D01*
X217145952Y-110704285D01*
X217193571Y-110751904D01*
X217288809Y-110799523D01*
X217526904Y-110799523D01*
X217622142Y-110751904D01*
X217669761Y-110704285D01*
X217717380Y-110609047D01*
X217717380Y-110323333D01*
X217669761Y-110228095D01*
X217622142Y-110180476D01*
X217717380Y-111275714D02*
X217717380Y-111466190D01*
X217669761Y-111561428D01*
X217622142Y-111609047D01*
X217479285Y-111704285D01*
X217288809Y-111751904D01*
X216907857Y-111751904D01*
X216812619Y-111704285D01*
X216765000Y-111656666D01*
X216717380Y-111561428D01*
X216717380Y-111370952D01*
X216765000Y-111275714D01*
X216812619Y-111228095D01*
X216907857Y-111180476D01*
X217145952Y-111180476D01*
X217241190Y-111228095D01*
X217288809Y-111275714D01*
X217336428Y-111370952D01*
X217336428Y-111561428D01*
X217288809Y-111656666D01*
X217241190Y-111704285D01*
X217145952Y-111751904D01*
X193587380Y-109275714D02*
X192587380Y-109275714D01*
X192587380Y-109513809D01*
X192635000Y-109656666D01*
X192730238Y-109751904D01*
X192825476Y-109799523D01*
X193015952Y-109847142D01*
X193158809Y-109847142D01*
X193349285Y-109799523D01*
X193444523Y-109751904D01*
X193539761Y-109656666D01*
X193587380Y-109513809D01*
X193587380Y-109275714D01*
X192587380Y-110180476D02*
X192587380Y-110799523D01*
X192968333Y-110466190D01*
X192968333Y-110609047D01*
X193015952Y-110704285D01*
X193063571Y-110751904D01*
X193158809Y-110799523D01*
X193396904Y-110799523D01*
X193492142Y-110751904D01*
X193539761Y-110704285D01*
X193587380Y-110609047D01*
X193587380Y-110323333D01*
X193539761Y-110228095D01*
X193492142Y-110180476D01*
X193015952Y-111370952D02*
X192968333Y-111275714D01*
X192920714Y-111228095D01*
X192825476Y-111180476D01*
X192777857Y-111180476D01*
X192682619Y-111228095D01*
X192635000Y-111275714D01*
X192587380Y-111370952D01*
X192587380Y-111561428D01*
X192635000Y-111656666D01*
X192682619Y-111704285D01*
X192777857Y-111751904D01*
X192825476Y-111751904D01*
X192920714Y-111704285D01*
X192968333Y-111656666D01*
X193015952Y-111561428D01*
X193015952Y-111370952D01*
X193063571Y-111275714D01*
X193111190Y-111228095D01*
X193206428Y-111180476D01*
X193396904Y-111180476D01*
X193492142Y-111228095D01*
X193539761Y-111275714D01*
X193587380Y-111370952D01*
X193587380Y-111561428D01*
X193539761Y-111656666D01*
X193492142Y-111704285D01*
X193396904Y-111751904D01*
X193206428Y-111751904D01*
X193111190Y-111704285D01*
X193063571Y-111656666D01*
X193015952Y-111561428D01*
X170092380Y-109275714D02*
X169092380Y-109275714D01*
X169092380Y-109513809D01*
X169140000Y-109656666D01*
X169235238Y-109751904D01*
X169330476Y-109799523D01*
X169520952Y-109847142D01*
X169663809Y-109847142D01*
X169854285Y-109799523D01*
X169949523Y-109751904D01*
X170044761Y-109656666D01*
X170092380Y-109513809D01*
X170092380Y-109275714D01*
X169092380Y-110180476D02*
X169092380Y-110799523D01*
X169473333Y-110466190D01*
X169473333Y-110609047D01*
X169520952Y-110704285D01*
X169568571Y-110751904D01*
X169663809Y-110799523D01*
X169901904Y-110799523D01*
X169997142Y-110751904D01*
X170044761Y-110704285D01*
X170092380Y-110609047D01*
X170092380Y-110323333D01*
X170044761Y-110228095D01*
X169997142Y-110180476D01*
X169092380Y-111132857D02*
X169092380Y-111799523D01*
X170092380Y-111370952D01*
X391072380Y-89590714D02*
X390072380Y-89590714D01*
X390072380Y-89828809D01*
X390120000Y-89971666D01*
X390215238Y-90066904D01*
X390310476Y-90114523D01*
X390500952Y-90162142D01*
X390643809Y-90162142D01*
X390834285Y-90114523D01*
X390929523Y-90066904D01*
X391024761Y-89971666D01*
X391072380Y-89828809D01*
X391072380Y-89590714D01*
X390072380Y-90495476D02*
X390072380Y-91114523D01*
X390453333Y-90781190D01*
X390453333Y-90924047D01*
X390500952Y-91019285D01*
X390548571Y-91066904D01*
X390643809Y-91114523D01*
X390881904Y-91114523D01*
X390977142Y-91066904D01*
X391024761Y-91019285D01*
X391072380Y-90924047D01*
X391072380Y-90638333D01*
X391024761Y-90543095D01*
X390977142Y-90495476D01*
X390072380Y-91971666D02*
X390072380Y-91781190D01*
X390120000Y-91685952D01*
X390167619Y-91638333D01*
X390310476Y-91543095D01*
X390500952Y-91495476D01*
X390881904Y-91495476D01*
X390977142Y-91543095D01*
X391024761Y-91590714D01*
X391072380Y-91685952D01*
X391072380Y-91876428D01*
X391024761Y-91971666D01*
X390977142Y-92019285D01*
X390881904Y-92066904D01*
X390643809Y-92066904D01*
X390548571Y-92019285D01*
X390500952Y-91971666D01*
X390453333Y-91876428D01*
X390453333Y-91685952D01*
X390500952Y-91590714D01*
X390548571Y-91543095D01*
X390643809Y-91495476D01*
X372022380Y-89590714D02*
X371022380Y-89590714D01*
X371022380Y-89828809D01*
X371070000Y-89971666D01*
X371165238Y-90066904D01*
X371260476Y-90114523D01*
X371450952Y-90162142D01*
X371593809Y-90162142D01*
X371784285Y-90114523D01*
X371879523Y-90066904D01*
X371974761Y-89971666D01*
X372022380Y-89828809D01*
X372022380Y-89590714D01*
X371022380Y-90495476D02*
X371022380Y-91114523D01*
X371403333Y-90781190D01*
X371403333Y-90924047D01*
X371450952Y-91019285D01*
X371498571Y-91066904D01*
X371593809Y-91114523D01*
X371831904Y-91114523D01*
X371927142Y-91066904D01*
X371974761Y-91019285D01*
X372022380Y-90924047D01*
X372022380Y-90638333D01*
X371974761Y-90543095D01*
X371927142Y-90495476D01*
X371022380Y-92019285D02*
X371022380Y-91543095D01*
X371498571Y-91495476D01*
X371450952Y-91543095D01*
X371403333Y-91638333D01*
X371403333Y-91876428D01*
X371450952Y-91971666D01*
X371498571Y-92019285D01*
X371593809Y-92066904D01*
X371831904Y-92066904D01*
X371927142Y-92019285D01*
X371974761Y-91971666D01*
X372022380Y-91876428D01*
X372022380Y-91638333D01*
X371974761Y-91543095D01*
X371927142Y-91495476D01*
X352972380Y-90225714D02*
X351972380Y-90225714D01*
X351972380Y-90463809D01*
X352020000Y-90606666D01*
X352115238Y-90701904D01*
X352210476Y-90749523D01*
X352400952Y-90797142D01*
X352543809Y-90797142D01*
X352734285Y-90749523D01*
X352829523Y-90701904D01*
X352924761Y-90606666D01*
X352972380Y-90463809D01*
X352972380Y-90225714D01*
X351972380Y-91130476D02*
X351972380Y-91749523D01*
X352353333Y-91416190D01*
X352353333Y-91559047D01*
X352400952Y-91654285D01*
X352448571Y-91701904D01*
X352543809Y-91749523D01*
X352781904Y-91749523D01*
X352877142Y-91701904D01*
X352924761Y-91654285D01*
X352972380Y-91559047D01*
X352972380Y-91273333D01*
X352924761Y-91178095D01*
X352877142Y-91130476D01*
X352305714Y-92606666D02*
X352972380Y-92606666D01*
X351924761Y-92368571D02*
X352639047Y-92130476D01*
X352639047Y-92749523D01*
X333922380Y-89590714D02*
X332922380Y-89590714D01*
X332922380Y-89828809D01*
X332970000Y-89971666D01*
X333065238Y-90066904D01*
X333160476Y-90114523D01*
X333350952Y-90162142D01*
X333493809Y-90162142D01*
X333684285Y-90114523D01*
X333779523Y-90066904D01*
X333874761Y-89971666D01*
X333922380Y-89828809D01*
X333922380Y-89590714D01*
X332922380Y-90495476D02*
X332922380Y-91114523D01*
X333303333Y-90781190D01*
X333303333Y-90924047D01*
X333350952Y-91019285D01*
X333398571Y-91066904D01*
X333493809Y-91114523D01*
X333731904Y-91114523D01*
X333827142Y-91066904D01*
X333874761Y-91019285D01*
X333922380Y-90924047D01*
X333922380Y-90638333D01*
X333874761Y-90543095D01*
X333827142Y-90495476D01*
X332922380Y-91447857D02*
X332922380Y-92066904D01*
X333303333Y-91733571D01*
X333303333Y-91876428D01*
X333350952Y-91971666D01*
X333398571Y-92019285D01*
X333493809Y-92066904D01*
X333731904Y-92066904D01*
X333827142Y-92019285D01*
X333874761Y-91971666D01*
X333922380Y-91876428D01*
X333922380Y-91590714D01*
X333874761Y-91495476D01*
X333827142Y-91447857D01*
X314872380Y-89590714D02*
X313872380Y-89590714D01*
X313872380Y-89828809D01*
X313920000Y-89971666D01*
X314015238Y-90066904D01*
X314110476Y-90114523D01*
X314300952Y-90162142D01*
X314443809Y-90162142D01*
X314634285Y-90114523D01*
X314729523Y-90066904D01*
X314824761Y-89971666D01*
X314872380Y-89828809D01*
X314872380Y-89590714D01*
X313872380Y-90495476D02*
X313872380Y-91114523D01*
X314253333Y-90781190D01*
X314253333Y-90924047D01*
X314300952Y-91019285D01*
X314348571Y-91066904D01*
X314443809Y-91114523D01*
X314681904Y-91114523D01*
X314777142Y-91066904D01*
X314824761Y-91019285D01*
X314872380Y-90924047D01*
X314872380Y-90638333D01*
X314824761Y-90543095D01*
X314777142Y-90495476D01*
X313967619Y-91495476D02*
X313920000Y-91543095D01*
X313872380Y-91638333D01*
X313872380Y-91876428D01*
X313920000Y-91971666D01*
X313967619Y-92019285D01*
X314062857Y-92066904D01*
X314158095Y-92066904D01*
X314300952Y-92019285D01*
X314872380Y-91447857D01*
X314872380Y-92066904D01*
X295822380Y-89590714D02*
X294822380Y-89590714D01*
X294822380Y-89828809D01*
X294870000Y-89971666D01*
X294965238Y-90066904D01*
X295060476Y-90114523D01*
X295250952Y-90162142D01*
X295393809Y-90162142D01*
X295584285Y-90114523D01*
X295679523Y-90066904D01*
X295774761Y-89971666D01*
X295822380Y-89828809D01*
X295822380Y-89590714D01*
X294822380Y-90495476D02*
X294822380Y-91114523D01*
X295203333Y-90781190D01*
X295203333Y-90924047D01*
X295250952Y-91019285D01*
X295298571Y-91066904D01*
X295393809Y-91114523D01*
X295631904Y-91114523D01*
X295727142Y-91066904D01*
X295774761Y-91019285D01*
X295822380Y-90924047D01*
X295822380Y-90638333D01*
X295774761Y-90543095D01*
X295727142Y-90495476D01*
X295822380Y-92066904D02*
X295822380Y-91495476D01*
X295822380Y-91781190D02*
X294822380Y-91781190D01*
X294965238Y-91685952D01*
X295060476Y-91590714D01*
X295108095Y-91495476D01*
X276772380Y-89590714D02*
X275772380Y-89590714D01*
X275772380Y-89828809D01*
X275820000Y-89971666D01*
X275915238Y-90066904D01*
X276010476Y-90114523D01*
X276200952Y-90162142D01*
X276343809Y-90162142D01*
X276534285Y-90114523D01*
X276629523Y-90066904D01*
X276724761Y-89971666D01*
X276772380Y-89828809D01*
X276772380Y-89590714D01*
X275772380Y-90495476D02*
X275772380Y-91114523D01*
X276153333Y-90781190D01*
X276153333Y-90924047D01*
X276200952Y-91019285D01*
X276248571Y-91066904D01*
X276343809Y-91114523D01*
X276581904Y-91114523D01*
X276677142Y-91066904D01*
X276724761Y-91019285D01*
X276772380Y-90924047D01*
X276772380Y-90638333D01*
X276724761Y-90543095D01*
X276677142Y-90495476D01*
X275772380Y-91733571D02*
X275772380Y-91828809D01*
X275820000Y-91924047D01*
X275867619Y-91971666D01*
X275962857Y-92019285D01*
X276153333Y-92066904D01*
X276391428Y-92066904D01*
X276581904Y-92019285D01*
X276677142Y-91971666D01*
X276724761Y-91924047D01*
X276772380Y-91828809D01*
X276772380Y-91733571D01*
X276724761Y-91638333D01*
X276677142Y-91590714D01*
X276581904Y-91543095D01*
X276391428Y-91495476D01*
X276153333Y-91495476D01*
X275962857Y-91543095D01*
X275867619Y-91590714D01*
X275820000Y-91638333D01*
X275772380Y-91733571D01*
X257722380Y-89590714D02*
X256722380Y-89590714D01*
X256722380Y-89828809D01*
X256770000Y-89971666D01*
X256865238Y-90066904D01*
X256960476Y-90114523D01*
X257150952Y-90162142D01*
X257293809Y-90162142D01*
X257484285Y-90114523D01*
X257579523Y-90066904D01*
X257674761Y-89971666D01*
X257722380Y-89828809D01*
X257722380Y-89590714D01*
X256817619Y-90543095D02*
X256770000Y-90590714D01*
X256722380Y-90685952D01*
X256722380Y-90924047D01*
X256770000Y-91019285D01*
X256817619Y-91066904D01*
X256912857Y-91114523D01*
X257008095Y-91114523D01*
X257150952Y-91066904D01*
X257722380Y-90495476D01*
X257722380Y-91114523D01*
X257722380Y-91590714D02*
X257722380Y-91781190D01*
X257674761Y-91876428D01*
X257627142Y-91924047D01*
X257484285Y-92019285D01*
X257293809Y-92066904D01*
X256912857Y-92066904D01*
X256817619Y-92019285D01*
X256770000Y-91971666D01*
X256722380Y-91876428D01*
X256722380Y-91685952D01*
X256770000Y-91590714D01*
X256817619Y-91543095D01*
X256912857Y-91495476D01*
X257150952Y-91495476D01*
X257246190Y-91543095D01*
X257293809Y-91590714D01*
X257341428Y-91685952D01*
X257341428Y-91876428D01*
X257293809Y-91971666D01*
X257246190Y-92019285D01*
X257150952Y-92066904D01*
X238672380Y-89590714D02*
X237672380Y-89590714D01*
X237672380Y-89828809D01*
X237720000Y-89971666D01*
X237815238Y-90066904D01*
X237910476Y-90114523D01*
X238100952Y-90162142D01*
X238243809Y-90162142D01*
X238434285Y-90114523D01*
X238529523Y-90066904D01*
X238624761Y-89971666D01*
X238672380Y-89828809D01*
X238672380Y-89590714D01*
X237767619Y-90543095D02*
X237720000Y-90590714D01*
X237672380Y-90685952D01*
X237672380Y-90924047D01*
X237720000Y-91019285D01*
X237767619Y-91066904D01*
X237862857Y-91114523D01*
X237958095Y-91114523D01*
X238100952Y-91066904D01*
X238672380Y-90495476D01*
X238672380Y-91114523D01*
X238100952Y-91685952D02*
X238053333Y-91590714D01*
X238005714Y-91543095D01*
X237910476Y-91495476D01*
X237862857Y-91495476D01*
X237767619Y-91543095D01*
X237720000Y-91590714D01*
X237672380Y-91685952D01*
X237672380Y-91876428D01*
X237720000Y-91971666D01*
X237767619Y-92019285D01*
X237862857Y-92066904D01*
X237910476Y-92066904D01*
X238005714Y-92019285D01*
X238053333Y-91971666D01*
X238100952Y-91876428D01*
X238100952Y-91685952D01*
X238148571Y-91590714D01*
X238196190Y-91543095D01*
X238291428Y-91495476D01*
X238481904Y-91495476D01*
X238577142Y-91543095D01*
X238624761Y-91590714D01*
X238672380Y-91685952D01*
X238672380Y-91876428D01*
X238624761Y-91971666D01*
X238577142Y-92019285D01*
X238481904Y-92066904D01*
X238291428Y-92066904D01*
X238196190Y-92019285D01*
X238148571Y-91971666D01*
X238100952Y-91876428D01*
X219622380Y-89590714D02*
X218622380Y-89590714D01*
X218622380Y-89828809D01*
X218670000Y-89971666D01*
X218765238Y-90066904D01*
X218860476Y-90114523D01*
X219050952Y-90162142D01*
X219193809Y-90162142D01*
X219384285Y-90114523D01*
X219479523Y-90066904D01*
X219574761Y-89971666D01*
X219622380Y-89828809D01*
X219622380Y-89590714D01*
X218717619Y-90543095D02*
X218670000Y-90590714D01*
X218622380Y-90685952D01*
X218622380Y-90924047D01*
X218670000Y-91019285D01*
X218717619Y-91066904D01*
X218812857Y-91114523D01*
X218908095Y-91114523D01*
X219050952Y-91066904D01*
X219622380Y-90495476D01*
X219622380Y-91114523D01*
X218622380Y-91447857D02*
X218622380Y-92114523D01*
X219622380Y-91685952D01*
X200572380Y-90225714D02*
X199572380Y-90225714D01*
X199572380Y-90463809D01*
X199620000Y-90606666D01*
X199715238Y-90701904D01*
X199810476Y-90749523D01*
X200000952Y-90797142D01*
X200143809Y-90797142D01*
X200334285Y-90749523D01*
X200429523Y-90701904D01*
X200524761Y-90606666D01*
X200572380Y-90463809D01*
X200572380Y-90225714D01*
X199667619Y-91178095D02*
X199620000Y-91225714D01*
X199572380Y-91320952D01*
X199572380Y-91559047D01*
X199620000Y-91654285D01*
X199667619Y-91701904D01*
X199762857Y-91749523D01*
X199858095Y-91749523D01*
X200000952Y-91701904D01*
X200572380Y-91130476D01*
X200572380Y-91749523D01*
X199572380Y-92606666D02*
X199572380Y-92416190D01*
X199620000Y-92320952D01*
X199667619Y-92273333D01*
X199810476Y-92178095D01*
X200000952Y-92130476D01*
X200381904Y-92130476D01*
X200477142Y-92178095D01*
X200524761Y-92225714D01*
X200572380Y-92320952D01*
X200572380Y-92511428D01*
X200524761Y-92606666D01*
X200477142Y-92654285D01*
X200381904Y-92701904D01*
X200143809Y-92701904D01*
X200048571Y-92654285D01*
X200000952Y-92606666D01*
X199953333Y-92511428D01*
X199953333Y-92320952D01*
X200000952Y-92225714D01*
X200048571Y-92178095D01*
X200143809Y-92130476D01*
X174537380Y-90225714D02*
X173537380Y-90225714D01*
X173537380Y-90463809D01*
X173585000Y-90606666D01*
X173680238Y-90701904D01*
X173775476Y-90749523D01*
X173965952Y-90797142D01*
X174108809Y-90797142D01*
X174299285Y-90749523D01*
X174394523Y-90701904D01*
X174489761Y-90606666D01*
X174537380Y-90463809D01*
X174537380Y-90225714D01*
X173632619Y-91178095D02*
X173585000Y-91225714D01*
X173537380Y-91320952D01*
X173537380Y-91559047D01*
X173585000Y-91654285D01*
X173632619Y-91701904D01*
X173727857Y-91749523D01*
X173823095Y-91749523D01*
X173965952Y-91701904D01*
X174537380Y-91130476D01*
X174537380Y-91749523D01*
X173537380Y-92654285D02*
X173537380Y-92178095D01*
X174013571Y-92130476D01*
X173965952Y-92178095D01*
X173918333Y-92273333D01*
X173918333Y-92511428D01*
X173965952Y-92606666D01*
X174013571Y-92654285D01*
X174108809Y-92701904D01*
X174346904Y-92701904D01*
X174442142Y-92654285D01*
X174489761Y-92606666D01*
X174537380Y-92511428D01*
X174537380Y-92273333D01*
X174489761Y-92178095D01*
X174442142Y-92130476D01*
X386627380Y-71175714D02*
X385627380Y-71175714D01*
X385627380Y-71413809D01*
X385675000Y-71556666D01*
X385770238Y-71651904D01*
X385865476Y-71699523D01*
X386055952Y-71747142D01*
X386198809Y-71747142D01*
X386389285Y-71699523D01*
X386484523Y-71651904D01*
X386579761Y-71556666D01*
X386627380Y-71413809D01*
X386627380Y-71175714D01*
X385722619Y-72128095D02*
X385675000Y-72175714D01*
X385627380Y-72270952D01*
X385627380Y-72509047D01*
X385675000Y-72604285D01*
X385722619Y-72651904D01*
X385817857Y-72699523D01*
X385913095Y-72699523D01*
X386055952Y-72651904D01*
X386627380Y-72080476D01*
X386627380Y-72699523D01*
X385960714Y-73556666D02*
X386627380Y-73556666D01*
X385579761Y-73318571D02*
X386294047Y-73080476D01*
X386294047Y-73699523D01*
X363132380Y-71175714D02*
X362132380Y-71175714D01*
X362132380Y-71413809D01*
X362180000Y-71556666D01*
X362275238Y-71651904D01*
X362370476Y-71699523D01*
X362560952Y-71747142D01*
X362703809Y-71747142D01*
X362894285Y-71699523D01*
X362989523Y-71651904D01*
X363084761Y-71556666D01*
X363132380Y-71413809D01*
X363132380Y-71175714D01*
X362227619Y-72128095D02*
X362180000Y-72175714D01*
X362132380Y-72270952D01*
X362132380Y-72509047D01*
X362180000Y-72604285D01*
X362227619Y-72651904D01*
X362322857Y-72699523D01*
X362418095Y-72699523D01*
X362560952Y-72651904D01*
X363132380Y-72080476D01*
X363132380Y-72699523D01*
X362132380Y-73032857D02*
X362132380Y-73651904D01*
X362513333Y-73318571D01*
X362513333Y-73461428D01*
X362560952Y-73556666D01*
X362608571Y-73604285D01*
X362703809Y-73651904D01*
X362941904Y-73651904D01*
X363037142Y-73604285D01*
X363084761Y-73556666D01*
X363132380Y-73461428D01*
X363132380Y-73175714D01*
X363084761Y-73080476D01*
X363037142Y-73032857D01*
X344082380Y-71175714D02*
X343082380Y-71175714D01*
X343082380Y-71413809D01*
X343130000Y-71556666D01*
X343225238Y-71651904D01*
X343320476Y-71699523D01*
X343510952Y-71747142D01*
X343653809Y-71747142D01*
X343844285Y-71699523D01*
X343939523Y-71651904D01*
X344034761Y-71556666D01*
X344082380Y-71413809D01*
X344082380Y-71175714D01*
X343177619Y-72128095D02*
X343130000Y-72175714D01*
X343082380Y-72270952D01*
X343082380Y-72509047D01*
X343130000Y-72604285D01*
X343177619Y-72651904D01*
X343272857Y-72699523D01*
X343368095Y-72699523D01*
X343510952Y-72651904D01*
X344082380Y-72080476D01*
X344082380Y-72699523D01*
X343177619Y-73080476D02*
X343130000Y-73128095D01*
X343082380Y-73223333D01*
X343082380Y-73461428D01*
X343130000Y-73556666D01*
X343177619Y-73604285D01*
X343272857Y-73651904D01*
X343368095Y-73651904D01*
X343510952Y-73604285D01*
X344082380Y-73032857D01*
X344082380Y-73651904D01*
X325032380Y-71175714D02*
X324032380Y-71175714D01*
X324032380Y-71413809D01*
X324080000Y-71556666D01*
X324175238Y-71651904D01*
X324270476Y-71699523D01*
X324460952Y-71747142D01*
X324603809Y-71747142D01*
X324794285Y-71699523D01*
X324889523Y-71651904D01*
X324984761Y-71556666D01*
X325032380Y-71413809D01*
X325032380Y-71175714D01*
X324127619Y-72128095D02*
X324080000Y-72175714D01*
X324032380Y-72270952D01*
X324032380Y-72509047D01*
X324080000Y-72604285D01*
X324127619Y-72651904D01*
X324222857Y-72699523D01*
X324318095Y-72699523D01*
X324460952Y-72651904D01*
X325032380Y-72080476D01*
X325032380Y-72699523D01*
X325032380Y-73651904D02*
X325032380Y-73080476D01*
X325032380Y-73366190D02*
X324032380Y-73366190D01*
X324175238Y-73270952D01*
X324270476Y-73175714D01*
X324318095Y-73080476D01*
X305982380Y-71175714D02*
X304982380Y-71175714D01*
X304982380Y-71413809D01*
X305030000Y-71556666D01*
X305125238Y-71651904D01*
X305220476Y-71699523D01*
X305410952Y-71747142D01*
X305553809Y-71747142D01*
X305744285Y-71699523D01*
X305839523Y-71651904D01*
X305934761Y-71556666D01*
X305982380Y-71413809D01*
X305982380Y-71175714D01*
X305077619Y-72128095D02*
X305030000Y-72175714D01*
X304982380Y-72270952D01*
X304982380Y-72509047D01*
X305030000Y-72604285D01*
X305077619Y-72651904D01*
X305172857Y-72699523D01*
X305268095Y-72699523D01*
X305410952Y-72651904D01*
X305982380Y-72080476D01*
X305982380Y-72699523D01*
X304982380Y-73318571D02*
X304982380Y-73413809D01*
X305030000Y-73509047D01*
X305077619Y-73556666D01*
X305172857Y-73604285D01*
X305363333Y-73651904D01*
X305601428Y-73651904D01*
X305791904Y-73604285D01*
X305887142Y-73556666D01*
X305934761Y-73509047D01*
X305982380Y-73413809D01*
X305982380Y-73318571D01*
X305934761Y-73223333D01*
X305887142Y-73175714D01*
X305791904Y-73128095D01*
X305601428Y-73080476D01*
X305363333Y-73080476D01*
X305172857Y-73128095D01*
X305077619Y-73175714D01*
X305030000Y-73223333D01*
X304982380Y-73318571D01*
X286932380Y-71175714D02*
X285932380Y-71175714D01*
X285932380Y-71413809D01*
X285980000Y-71556666D01*
X286075238Y-71651904D01*
X286170476Y-71699523D01*
X286360952Y-71747142D01*
X286503809Y-71747142D01*
X286694285Y-71699523D01*
X286789523Y-71651904D01*
X286884761Y-71556666D01*
X286932380Y-71413809D01*
X286932380Y-71175714D01*
X286932380Y-72699523D02*
X286932380Y-72128095D01*
X286932380Y-72413809D02*
X285932380Y-72413809D01*
X286075238Y-72318571D01*
X286170476Y-72223333D01*
X286218095Y-72128095D01*
X286932380Y-73175714D02*
X286932380Y-73366190D01*
X286884761Y-73461428D01*
X286837142Y-73509047D01*
X286694285Y-73604285D01*
X286503809Y-73651904D01*
X286122857Y-73651904D01*
X286027619Y-73604285D01*
X285980000Y-73556666D01*
X285932380Y-73461428D01*
X285932380Y-73270952D01*
X285980000Y-73175714D01*
X286027619Y-73128095D01*
X286122857Y-73080476D01*
X286360952Y-73080476D01*
X286456190Y-73128095D01*
X286503809Y-73175714D01*
X286551428Y-73270952D01*
X286551428Y-73461428D01*
X286503809Y-73556666D01*
X286456190Y-73604285D01*
X286360952Y-73651904D01*
X267882380Y-71175714D02*
X266882380Y-71175714D01*
X266882380Y-71413809D01*
X266930000Y-71556666D01*
X267025238Y-71651904D01*
X267120476Y-71699523D01*
X267310952Y-71747142D01*
X267453809Y-71747142D01*
X267644285Y-71699523D01*
X267739523Y-71651904D01*
X267834761Y-71556666D01*
X267882380Y-71413809D01*
X267882380Y-71175714D01*
X267882380Y-72699523D02*
X267882380Y-72128095D01*
X267882380Y-72413809D02*
X266882380Y-72413809D01*
X267025238Y-72318571D01*
X267120476Y-72223333D01*
X267168095Y-72128095D01*
X267310952Y-73270952D02*
X267263333Y-73175714D01*
X267215714Y-73128095D01*
X267120476Y-73080476D01*
X267072857Y-73080476D01*
X266977619Y-73128095D01*
X266930000Y-73175714D01*
X266882380Y-73270952D01*
X266882380Y-73461428D01*
X266930000Y-73556666D01*
X266977619Y-73604285D01*
X267072857Y-73651904D01*
X267120476Y-73651904D01*
X267215714Y-73604285D01*
X267263333Y-73556666D01*
X267310952Y-73461428D01*
X267310952Y-73270952D01*
X267358571Y-73175714D01*
X267406190Y-73128095D01*
X267501428Y-73080476D01*
X267691904Y-73080476D01*
X267787142Y-73128095D01*
X267834761Y-73175714D01*
X267882380Y-73270952D01*
X267882380Y-73461428D01*
X267834761Y-73556666D01*
X267787142Y-73604285D01*
X267691904Y-73651904D01*
X267501428Y-73651904D01*
X267406190Y-73604285D01*
X267358571Y-73556666D01*
X267310952Y-73461428D01*
X248832380Y-71175714D02*
X247832380Y-71175714D01*
X247832380Y-71413809D01*
X247880000Y-71556666D01*
X247975238Y-71651904D01*
X248070476Y-71699523D01*
X248260952Y-71747142D01*
X248403809Y-71747142D01*
X248594285Y-71699523D01*
X248689523Y-71651904D01*
X248784761Y-71556666D01*
X248832380Y-71413809D01*
X248832380Y-71175714D01*
X248832380Y-72699523D02*
X248832380Y-72128095D01*
X248832380Y-72413809D02*
X247832380Y-72413809D01*
X247975238Y-72318571D01*
X248070476Y-72223333D01*
X248118095Y-72128095D01*
X247832380Y-73032857D02*
X247832380Y-73699523D01*
X248832380Y-73270952D01*
X229782380Y-71175714D02*
X228782380Y-71175714D01*
X228782380Y-71413809D01*
X228830000Y-71556666D01*
X228925238Y-71651904D01*
X229020476Y-71699523D01*
X229210952Y-71747142D01*
X229353809Y-71747142D01*
X229544285Y-71699523D01*
X229639523Y-71651904D01*
X229734761Y-71556666D01*
X229782380Y-71413809D01*
X229782380Y-71175714D01*
X229782380Y-72699523D02*
X229782380Y-72128095D01*
X229782380Y-72413809D02*
X228782380Y-72413809D01*
X228925238Y-72318571D01*
X229020476Y-72223333D01*
X229068095Y-72128095D01*
X228782380Y-73556666D02*
X228782380Y-73366190D01*
X228830000Y-73270952D01*
X228877619Y-73223333D01*
X229020476Y-73128095D01*
X229210952Y-73080476D01*
X229591904Y-73080476D01*
X229687142Y-73128095D01*
X229734761Y-73175714D01*
X229782380Y-73270952D01*
X229782380Y-73461428D01*
X229734761Y-73556666D01*
X229687142Y-73604285D01*
X229591904Y-73651904D01*
X229353809Y-73651904D01*
X229258571Y-73604285D01*
X229210952Y-73556666D01*
X229163333Y-73461428D01*
X229163333Y-73270952D01*
X229210952Y-73175714D01*
X229258571Y-73128095D01*
X229353809Y-73080476D01*
X210732380Y-71175714D02*
X209732380Y-71175714D01*
X209732380Y-71413809D01*
X209780000Y-71556666D01*
X209875238Y-71651904D01*
X209970476Y-71699523D01*
X210160952Y-71747142D01*
X210303809Y-71747142D01*
X210494285Y-71699523D01*
X210589523Y-71651904D01*
X210684761Y-71556666D01*
X210732380Y-71413809D01*
X210732380Y-71175714D01*
X210732380Y-72699523D02*
X210732380Y-72128095D01*
X210732380Y-72413809D02*
X209732380Y-72413809D01*
X209875238Y-72318571D01*
X209970476Y-72223333D01*
X210018095Y-72128095D01*
X209732380Y-73604285D02*
X209732380Y-73128095D01*
X210208571Y-73080476D01*
X210160952Y-73128095D01*
X210113333Y-73223333D01*
X210113333Y-73461428D01*
X210160952Y-73556666D01*
X210208571Y-73604285D01*
X210303809Y-73651904D01*
X210541904Y-73651904D01*
X210637142Y-73604285D01*
X210684761Y-73556666D01*
X210732380Y-73461428D01*
X210732380Y-73223333D01*
X210684761Y-73128095D01*
X210637142Y-73080476D01*
X191682380Y-71175714D02*
X190682380Y-71175714D01*
X190682380Y-71413809D01*
X190730000Y-71556666D01*
X190825238Y-71651904D01*
X190920476Y-71699523D01*
X191110952Y-71747142D01*
X191253809Y-71747142D01*
X191444285Y-71699523D01*
X191539523Y-71651904D01*
X191634761Y-71556666D01*
X191682380Y-71413809D01*
X191682380Y-71175714D01*
X191682380Y-72699523D02*
X191682380Y-72128095D01*
X191682380Y-72413809D02*
X190682380Y-72413809D01*
X190825238Y-72318571D01*
X190920476Y-72223333D01*
X190968095Y-72128095D01*
X191015714Y-73556666D02*
X191682380Y-73556666D01*
X190634761Y-73318571D02*
X191349047Y-73080476D01*
X191349047Y-73699523D01*
X170092380Y-71175714D02*
X169092380Y-71175714D01*
X169092380Y-71413809D01*
X169140000Y-71556666D01*
X169235238Y-71651904D01*
X169330476Y-71699523D01*
X169520952Y-71747142D01*
X169663809Y-71747142D01*
X169854285Y-71699523D01*
X169949523Y-71651904D01*
X170044761Y-71556666D01*
X170092380Y-71413809D01*
X170092380Y-71175714D01*
X170092380Y-72699523D02*
X170092380Y-72128095D01*
X170092380Y-72413809D02*
X169092380Y-72413809D01*
X169235238Y-72318571D01*
X169330476Y-72223333D01*
X169378095Y-72128095D01*
X169092380Y-73032857D02*
X169092380Y-73651904D01*
X169473333Y-73318571D01*
X169473333Y-73461428D01*
X169520952Y-73556666D01*
X169568571Y-73604285D01*
X169663809Y-73651904D01*
X169901904Y-73651904D01*
X169997142Y-73604285D01*
X170044761Y-73556666D01*
X170092380Y-73461428D01*
X170092380Y-73175714D01*
X170044761Y-73080476D01*
X169997142Y-73032857D01*
X384722380Y-52125714D02*
X383722380Y-52125714D01*
X383722380Y-52363809D01*
X383770000Y-52506666D01*
X383865238Y-52601904D01*
X383960476Y-52649523D01*
X384150952Y-52697142D01*
X384293809Y-52697142D01*
X384484285Y-52649523D01*
X384579523Y-52601904D01*
X384674761Y-52506666D01*
X384722380Y-52363809D01*
X384722380Y-52125714D01*
X384722380Y-53649523D02*
X384722380Y-53078095D01*
X384722380Y-53363809D02*
X383722380Y-53363809D01*
X383865238Y-53268571D01*
X383960476Y-53173333D01*
X384008095Y-53078095D01*
X383817619Y-54030476D02*
X383770000Y-54078095D01*
X383722380Y-54173333D01*
X383722380Y-54411428D01*
X383770000Y-54506666D01*
X383817619Y-54554285D01*
X383912857Y-54601904D01*
X384008095Y-54601904D01*
X384150952Y-54554285D01*
X384722380Y-53982857D01*
X384722380Y-54601904D01*
X364434285Y-56872380D02*
X364434285Y-55872380D01*
X364196190Y-55872380D01*
X364053333Y-55920000D01*
X363958095Y-56015238D01*
X363910476Y-56110476D01*
X363862857Y-56300952D01*
X363862857Y-56443809D01*
X363910476Y-56634285D01*
X363958095Y-56729523D01*
X364053333Y-56824761D01*
X364196190Y-56872380D01*
X364434285Y-56872380D01*
X362910476Y-56872380D02*
X363481904Y-56872380D01*
X363196190Y-56872380D02*
X363196190Y-55872380D01*
X363291428Y-56015238D01*
X363386666Y-56110476D01*
X363481904Y-56158095D01*
X361958095Y-56872380D02*
X362529523Y-56872380D01*
X362243809Y-56872380D02*
X362243809Y-55872380D01*
X362339047Y-56015238D01*
X362434285Y-56110476D01*
X362529523Y-56158095D01*
X339002380Y-52125714D02*
X338002380Y-52125714D01*
X338002380Y-52363809D01*
X338050000Y-52506666D01*
X338145238Y-52601904D01*
X338240476Y-52649523D01*
X338430952Y-52697142D01*
X338573809Y-52697142D01*
X338764285Y-52649523D01*
X338859523Y-52601904D01*
X338954761Y-52506666D01*
X339002380Y-52363809D01*
X339002380Y-52125714D01*
X339002380Y-53649523D02*
X339002380Y-53078095D01*
X339002380Y-53363809D02*
X338002380Y-53363809D01*
X338145238Y-53268571D01*
X338240476Y-53173333D01*
X338288095Y-53078095D01*
X338002380Y-54268571D02*
X338002380Y-54363809D01*
X338050000Y-54459047D01*
X338097619Y-54506666D01*
X338192857Y-54554285D01*
X338383333Y-54601904D01*
X338621428Y-54601904D01*
X338811904Y-54554285D01*
X338907142Y-54506666D01*
X338954761Y-54459047D01*
X339002380Y-54363809D01*
X339002380Y-54268571D01*
X338954761Y-54173333D01*
X338907142Y-54125714D01*
X338811904Y-54078095D01*
X338621428Y-54030476D01*
X338383333Y-54030476D01*
X338192857Y-54078095D01*
X338097619Y-54125714D01*
X338050000Y-54173333D01*
X338002380Y-54268571D01*
X319952380Y-52601904D02*
X318952380Y-52601904D01*
X318952380Y-52840000D01*
X319000000Y-52982857D01*
X319095238Y-53078095D01*
X319190476Y-53125714D01*
X319380952Y-53173333D01*
X319523809Y-53173333D01*
X319714285Y-53125714D01*
X319809523Y-53078095D01*
X319904761Y-52982857D01*
X319952380Y-52840000D01*
X319952380Y-52601904D01*
X319952380Y-53649523D02*
X319952380Y-53840000D01*
X319904761Y-53935238D01*
X319857142Y-53982857D01*
X319714285Y-54078095D01*
X319523809Y-54125714D01*
X319142857Y-54125714D01*
X319047619Y-54078095D01*
X319000000Y-54030476D01*
X318952380Y-53935238D01*
X318952380Y-53744761D01*
X319000000Y-53649523D01*
X319047619Y-53601904D01*
X319142857Y-53554285D01*
X319380952Y-53554285D01*
X319476190Y-53601904D01*
X319523809Y-53649523D01*
X319571428Y-53744761D01*
X319571428Y-53935238D01*
X319523809Y-54030476D01*
X319476190Y-54078095D01*
X319380952Y-54125714D01*
X300902380Y-52601904D02*
X299902380Y-52601904D01*
X299902380Y-52840000D01*
X299950000Y-52982857D01*
X300045238Y-53078095D01*
X300140476Y-53125714D01*
X300330952Y-53173333D01*
X300473809Y-53173333D01*
X300664285Y-53125714D01*
X300759523Y-53078095D01*
X300854761Y-52982857D01*
X300902380Y-52840000D01*
X300902380Y-52601904D01*
X300330952Y-53744761D02*
X300283333Y-53649523D01*
X300235714Y-53601904D01*
X300140476Y-53554285D01*
X300092857Y-53554285D01*
X299997619Y-53601904D01*
X299950000Y-53649523D01*
X299902380Y-53744761D01*
X299902380Y-53935238D01*
X299950000Y-54030476D01*
X299997619Y-54078095D01*
X300092857Y-54125714D01*
X300140476Y-54125714D01*
X300235714Y-54078095D01*
X300283333Y-54030476D01*
X300330952Y-53935238D01*
X300330952Y-53744761D01*
X300378571Y-53649523D01*
X300426190Y-53601904D01*
X300521428Y-53554285D01*
X300711904Y-53554285D01*
X300807142Y-53601904D01*
X300854761Y-53649523D01*
X300902380Y-53744761D01*
X300902380Y-53935238D01*
X300854761Y-54030476D01*
X300807142Y-54078095D01*
X300711904Y-54125714D01*
X300521428Y-54125714D01*
X300426190Y-54078095D01*
X300378571Y-54030476D01*
X300330952Y-53935238D01*
X281852380Y-52601904D02*
X280852380Y-52601904D01*
X280852380Y-52840000D01*
X280900000Y-52982857D01*
X280995238Y-53078095D01*
X281090476Y-53125714D01*
X281280952Y-53173333D01*
X281423809Y-53173333D01*
X281614285Y-53125714D01*
X281709523Y-53078095D01*
X281804761Y-52982857D01*
X281852380Y-52840000D01*
X281852380Y-52601904D01*
X280852380Y-53506666D02*
X280852380Y-54173333D01*
X281852380Y-53744761D01*
X262802380Y-52601904D02*
X261802380Y-52601904D01*
X261802380Y-52840000D01*
X261850000Y-52982857D01*
X261945238Y-53078095D01*
X262040476Y-53125714D01*
X262230952Y-53173333D01*
X262373809Y-53173333D01*
X262564285Y-53125714D01*
X262659523Y-53078095D01*
X262754761Y-52982857D01*
X262802380Y-52840000D01*
X262802380Y-52601904D01*
X261802380Y-54030476D02*
X261802380Y-53840000D01*
X261850000Y-53744761D01*
X261897619Y-53697142D01*
X262040476Y-53601904D01*
X262230952Y-53554285D01*
X262611904Y-53554285D01*
X262707142Y-53601904D01*
X262754761Y-53649523D01*
X262802380Y-53744761D01*
X262802380Y-53935238D01*
X262754761Y-54030476D01*
X262707142Y-54078095D01*
X262611904Y-54125714D01*
X262373809Y-54125714D01*
X262278571Y-54078095D01*
X262230952Y-54030476D01*
X262183333Y-53935238D01*
X262183333Y-53744761D01*
X262230952Y-53649523D01*
X262278571Y-53601904D01*
X262373809Y-53554285D01*
X243752380Y-52601904D02*
X242752380Y-52601904D01*
X242752380Y-52840000D01*
X242800000Y-52982857D01*
X242895238Y-53078095D01*
X242990476Y-53125714D01*
X243180952Y-53173333D01*
X243323809Y-53173333D01*
X243514285Y-53125714D01*
X243609523Y-53078095D01*
X243704761Y-52982857D01*
X243752380Y-52840000D01*
X243752380Y-52601904D01*
X242752380Y-54078095D02*
X242752380Y-53601904D01*
X243228571Y-53554285D01*
X243180952Y-53601904D01*
X243133333Y-53697142D01*
X243133333Y-53935238D01*
X243180952Y-54030476D01*
X243228571Y-54078095D01*
X243323809Y-54125714D01*
X243561904Y-54125714D01*
X243657142Y-54078095D01*
X243704761Y-54030476D01*
X243752380Y-53935238D01*
X243752380Y-53697142D01*
X243704761Y-53601904D01*
X243657142Y-53554285D01*
X224702380Y-52601904D02*
X223702380Y-52601904D01*
X223702380Y-52840000D01*
X223750000Y-52982857D01*
X223845238Y-53078095D01*
X223940476Y-53125714D01*
X224130952Y-53173333D01*
X224273809Y-53173333D01*
X224464285Y-53125714D01*
X224559523Y-53078095D01*
X224654761Y-52982857D01*
X224702380Y-52840000D01*
X224702380Y-52601904D01*
X224035714Y-54030476D02*
X224702380Y-54030476D01*
X223654761Y-53792380D02*
X224369047Y-53554285D01*
X224369047Y-54173333D01*
X205652380Y-52601904D02*
X204652380Y-52601904D01*
X204652380Y-52840000D01*
X204700000Y-52982857D01*
X204795238Y-53078095D01*
X204890476Y-53125714D01*
X205080952Y-53173333D01*
X205223809Y-53173333D01*
X205414285Y-53125714D01*
X205509523Y-53078095D01*
X205604761Y-52982857D01*
X205652380Y-52840000D01*
X205652380Y-52601904D01*
X204652380Y-53506666D02*
X204652380Y-54125714D01*
X205033333Y-53792380D01*
X205033333Y-53935238D01*
X205080952Y-54030476D01*
X205128571Y-54078095D01*
X205223809Y-54125714D01*
X205461904Y-54125714D01*
X205557142Y-54078095D01*
X205604761Y-54030476D01*
X205652380Y-53935238D01*
X205652380Y-53649523D01*
X205604761Y-53554285D01*
X205557142Y-53506666D01*
X186602380Y-52601904D02*
X185602380Y-52601904D01*
X185602380Y-52840000D01*
X185650000Y-52982857D01*
X185745238Y-53078095D01*
X185840476Y-53125714D01*
X186030952Y-53173333D01*
X186173809Y-53173333D01*
X186364285Y-53125714D01*
X186459523Y-53078095D01*
X186554761Y-52982857D01*
X186602380Y-52840000D01*
X186602380Y-52601904D01*
X185697619Y-53554285D02*
X185650000Y-53601904D01*
X185602380Y-53697142D01*
X185602380Y-53935238D01*
X185650000Y-54030476D01*
X185697619Y-54078095D01*
X185792857Y-54125714D01*
X185888095Y-54125714D01*
X186030952Y-54078095D01*
X186602380Y-53506666D01*
X186602380Y-54125714D01*
X167552380Y-52601904D02*
X166552380Y-52601904D01*
X166552380Y-52840000D01*
X166600000Y-52982857D01*
X166695238Y-53078095D01*
X166790476Y-53125714D01*
X166980952Y-53173333D01*
X167123809Y-53173333D01*
X167314285Y-53125714D01*
X167409523Y-53078095D01*
X167504761Y-52982857D01*
X167552380Y-52840000D01*
X167552380Y-52601904D01*
X167552380Y-54125714D02*
X167552380Y-53554285D01*
X167552380Y-53840000D02*
X166552380Y-53840000D01*
X166695238Y-53744761D01*
X166790476Y-53649523D01*
X166838095Y-53554285D01*
X334467142Y-61237833D02*
X334514761Y-61190214D01*
X334562380Y-61047357D01*
X334562380Y-60952119D01*
X334514761Y-60809261D01*
X334419523Y-60714023D01*
X334324285Y-60666404D01*
X334133809Y-60618785D01*
X333990952Y-60618785D01*
X333800476Y-60666404D01*
X333705238Y-60714023D01*
X333610000Y-60809261D01*
X333562380Y-60952119D01*
X333562380Y-61047357D01*
X333610000Y-61190214D01*
X333657619Y-61237833D01*
X334562380Y-61714023D02*
X334562380Y-61904500D01*
X334514761Y-61999738D01*
X334467142Y-62047357D01*
X334324285Y-62142595D01*
X334133809Y-62190214D01*
X333752857Y-62190214D01*
X333657619Y-62142595D01*
X333610000Y-62094976D01*
X333562380Y-61999738D01*
X333562380Y-61809261D01*
X333610000Y-61714023D01*
X333657619Y-61666404D01*
X333752857Y-61618785D01*
X333990952Y-61618785D01*
X334086190Y-61666404D01*
X334133809Y-61714023D01*
X334181428Y-61809261D01*
X334181428Y-61999738D01*
X334133809Y-62094976D01*
X334086190Y-62142595D01*
X333990952Y-62190214D01*
X340787142Y-61233333D02*
X340834761Y-61185714D01*
X340882380Y-61042857D01*
X340882380Y-60947619D01*
X340834761Y-60804761D01*
X340739523Y-60709523D01*
X340644285Y-60661904D01*
X340453809Y-60614285D01*
X340310952Y-60614285D01*
X340120476Y-60661904D01*
X340025238Y-60709523D01*
X339930000Y-60804761D01*
X339882380Y-60947619D01*
X339882380Y-61042857D01*
X339930000Y-61185714D01*
X339977619Y-61233333D01*
X340310952Y-61804761D02*
X340263333Y-61709523D01*
X340215714Y-61661904D01*
X340120476Y-61614285D01*
X340072857Y-61614285D01*
X339977619Y-61661904D01*
X339930000Y-61709523D01*
X339882380Y-61804761D01*
X339882380Y-61995238D01*
X339930000Y-62090476D01*
X339977619Y-62138095D01*
X340072857Y-62185714D01*
X340120476Y-62185714D01*
X340215714Y-62138095D01*
X340263333Y-62090476D01*
X340310952Y-61995238D01*
X340310952Y-61804761D01*
X340358571Y-61709523D01*
X340406190Y-61661904D01*
X340501428Y-61614285D01*
X340691904Y-61614285D01*
X340787142Y-61661904D01*
X340834761Y-61709523D01*
X340882380Y-61804761D01*
X340882380Y-61995238D01*
X340834761Y-62090476D01*
X340787142Y-62138095D01*
X340691904Y-62185714D01*
X340501428Y-62185714D01*
X340406190Y-62138095D01*
X340358571Y-62090476D01*
X340310952Y-61995238D01*
X330166666Y-98787142D02*
X330214285Y-98834761D01*
X330357142Y-98882380D01*
X330452380Y-98882380D01*
X330595238Y-98834761D01*
X330690476Y-98739523D01*
X330738095Y-98644285D01*
X330785714Y-98453809D01*
X330785714Y-98310952D01*
X330738095Y-98120476D01*
X330690476Y-98025238D01*
X330595238Y-97930000D01*
X330452380Y-97882380D01*
X330357142Y-97882380D01*
X330214285Y-97930000D01*
X330166666Y-97977619D01*
X329833333Y-97882380D02*
X329166666Y-97882380D01*
X329595238Y-98882380D01*
X339952166Y-109981892D02*
X339999785Y-110029511D01*
X340142642Y-110077130D01*
X340237880Y-110077130D01*
X340380738Y-110029511D01*
X340475976Y-109934273D01*
X340523595Y-109839035D01*
X340571214Y-109648559D01*
X340571214Y-109505702D01*
X340523595Y-109315226D01*
X340475976Y-109219988D01*
X340380738Y-109124750D01*
X340237880Y-109077130D01*
X340142642Y-109077130D01*
X339999785Y-109124750D01*
X339952166Y-109172369D01*
X339095023Y-109077130D02*
X339285500Y-109077130D01*
X339380738Y-109124750D01*
X339428357Y-109172369D01*
X339523595Y-109315226D01*
X339571214Y-109505702D01*
X339571214Y-109886654D01*
X339523595Y-109981892D01*
X339475976Y-110029511D01*
X339380738Y-110077130D01*
X339190261Y-110077130D01*
X339095023Y-110029511D01*
X339047404Y-109981892D01*
X338999785Y-109886654D01*
X338999785Y-109648559D01*
X339047404Y-109553321D01*
X339095023Y-109505702D01*
X339190261Y-109458083D01*
X339380738Y-109458083D01*
X339475976Y-109505702D01*
X339523595Y-109553321D01*
X339571214Y-109648559D01*
X339966666Y-111127142D02*
X340014285Y-111174761D01*
X340157142Y-111222380D01*
X340252380Y-111222380D01*
X340395238Y-111174761D01*
X340490476Y-111079523D01*
X340538095Y-110984285D01*
X340585714Y-110793809D01*
X340585714Y-110650952D01*
X340538095Y-110460476D01*
X340490476Y-110365238D01*
X340395238Y-110270000D01*
X340252380Y-110222380D01*
X340157142Y-110222380D01*
X340014285Y-110270000D01*
X339966666Y-110317619D01*
X339061904Y-110222380D02*
X339538095Y-110222380D01*
X339585714Y-110698571D01*
X339538095Y-110650952D01*
X339442857Y-110603333D01*
X339204761Y-110603333D01*
X339109523Y-110650952D01*
X339061904Y-110698571D01*
X339014285Y-110793809D01*
X339014285Y-111031904D01*
X339061904Y-111127142D01*
X339109523Y-111174761D01*
X339204761Y-111222380D01*
X339442857Y-111222380D01*
X339538095Y-111174761D01*
X339585714Y-111127142D01*
X335029142Y-111339333D02*
X335076761Y-111291714D01*
X335124380Y-111148857D01*
X335124380Y-111053619D01*
X335076761Y-110910761D01*
X334981523Y-110815523D01*
X334886285Y-110767904D01*
X334695809Y-110720285D01*
X334552952Y-110720285D01*
X334362476Y-110767904D01*
X334267238Y-110815523D01*
X334172000Y-110910761D01*
X334124380Y-111053619D01*
X334124380Y-111148857D01*
X334172000Y-111291714D01*
X334219619Y-111339333D01*
X334457714Y-112196476D02*
X335124380Y-112196476D01*
X334076761Y-111958380D02*
X334791047Y-111720285D01*
X334791047Y-112339333D01*
X330166666Y-99987142D02*
X330214285Y-100034761D01*
X330357142Y-100082380D01*
X330452380Y-100082380D01*
X330595238Y-100034761D01*
X330690476Y-99939523D01*
X330738095Y-99844285D01*
X330785714Y-99653809D01*
X330785714Y-99510952D01*
X330738095Y-99320476D01*
X330690476Y-99225238D01*
X330595238Y-99130000D01*
X330452380Y-99082380D01*
X330357142Y-99082380D01*
X330214285Y-99130000D01*
X330166666Y-99177619D01*
X329833333Y-99082380D02*
X329214285Y-99082380D01*
X329547619Y-99463333D01*
X329404761Y-99463333D01*
X329309523Y-99510952D01*
X329261904Y-99558571D01*
X329214285Y-99653809D01*
X329214285Y-99891904D01*
X329261904Y-99987142D01*
X329309523Y-100034761D01*
X329404761Y-100082380D01*
X329690476Y-100082380D01*
X329785714Y-100034761D01*
X329833333Y-99987142D01*
X340127142Y-99633333D02*
X340174761Y-99585714D01*
X340222380Y-99442857D01*
X340222380Y-99347619D01*
X340174761Y-99204761D01*
X340079523Y-99109523D01*
X339984285Y-99061904D01*
X339793809Y-99014285D01*
X339650952Y-99014285D01*
X339460476Y-99061904D01*
X339365238Y-99109523D01*
X339270000Y-99204761D01*
X339222380Y-99347619D01*
X339222380Y-99442857D01*
X339270000Y-99585714D01*
X339317619Y-99633333D01*
X339317619Y-100014285D02*
X339270000Y-100061904D01*
X339222380Y-100157142D01*
X339222380Y-100395238D01*
X339270000Y-100490476D01*
X339317619Y-100538095D01*
X339412857Y-100585714D01*
X339508095Y-100585714D01*
X339650952Y-100538095D01*
X340222380Y-99966666D01*
X340222380Y-100585714D01*
X336299142Y-111316333D02*
X336346761Y-111268714D01*
X336394380Y-111125857D01*
X336394380Y-111030619D01*
X336346761Y-110887761D01*
X336251523Y-110792523D01*
X336156285Y-110744904D01*
X335965809Y-110697285D01*
X335822952Y-110697285D01*
X335632476Y-110744904D01*
X335537238Y-110792523D01*
X335442000Y-110887761D01*
X335394380Y-111030619D01*
X335394380Y-111125857D01*
X335442000Y-111268714D01*
X335489619Y-111316333D01*
X336394380Y-112268714D02*
X336394380Y-111697285D01*
X336394380Y-111983000D02*
X335394380Y-111983000D01*
X335537238Y-111887761D01*
X335632476Y-111792523D01*
X335680095Y-111697285D01*
M02*
