M48
; DRILL file {KiCad (5.1.4)-1} date 8/25/2024 3:46:26 PM
; FORMAT={-:-/ absolute / inch / decimal}
; #@! TF.CreationDate,2024-08-25T15:46:26-04:00
; #@! TF.GenerationSoftware,Kicad,Pcbnew,(5.1.4)-1
; #@! TF.FileFunction,NonPlated,1,2,NPTH
FMAT,2
INCH
T1C0.0256
T2C0.0689
T3C0.1200
T4C0.1570
%
G90
G05
T1
X13.6362Y-1.6061
X13.8638Y-1.6061
T2
X10.925Y-1.9375
X11.325Y-1.9375
X12.2375Y-4.1875
X12.6375Y-4.1875
X7.175Y-1.9375
X7.575Y-1.9375
X15.2375Y-4.1875
X15.6375Y-4.1875
X15.05Y-2.6875
X15.45Y-2.6875
X8.1125Y-2.6875
X8.5125Y-2.6875
X13.7375Y-3.4375
X14.1375Y-3.4375
X11.1125Y-2.6875
X11.5125Y-2.6875
X12.9875Y-3.4375
X13.3875Y-3.4375
X7.3625Y-2.6875
X7.7625Y-2.6875
X10.3625Y-2.6875
X10.7625Y-2.6875
X9.2375Y-3.4375
X9.6375Y-3.4375
X12.2375Y-3.4375
X12.6375Y-3.4375
X12.425Y-1.9375
X12.825Y-1.9375
X9.9875Y-3.4375
X10.3875Y-3.4375
X7.925Y-1.9375
X8.325Y-1.9375
X13.7375Y-4.1875
X14.1375Y-4.1875
X9.9875Y-4.1875
X10.3875Y-4.1875
X12.6125Y-2.6875
X13.0125Y-2.6875
X13.175Y-1.9375
X13.575Y-1.9375
X13.3625Y-2.6875
X13.7625Y-2.6875
X8.8625Y-2.6875
X9.2625Y-2.6875
X7.4562Y-4.1875
X7.8563Y-4.1875
X14.1125Y-2.6875
X14.5125Y-2.6875
X10.7375Y-3.4375
X11.1375Y-3.4375
X9.425Y-1.9375
X9.825Y-1.9375
X14.4875Y-3.4375
X14.8875Y-3.4375
X11.675Y-1.9375
X12.075Y-1.9375
X9.2375Y-4.1875
X9.6375Y-4.1875
X14.9562Y-1.9375
X15.3562Y-1.9375
X10.175Y-1.9375
X10.575Y-1.9375
X14.4875Y-4.1875
X14.8875Y-4.1875
X8.675Y-1.9375
X9.075Y-1.9375
X8.4875Y-3.4375
X8.8875Y-3.4375
X11.8625Y-2.6875
X12.2625Y-2.6875
X13.925Y-1.9375
X14.325Y-1.9375
X6.5187Y-2.6875
X6.9188Y-2.6875
X9.6125Y-2.6875
X10.0125Y-2.6875
X8.3937Y-4.1875
X8.7937Y-4.1875
X7.7375Y-3.4375
X8.1375Y-3.4375
X6.7062Y-3.4375
X7.1063Y-3.4375
X11.4875Y-3.4375
X11.8875Y-3.4375
X11.1125Y-4.1875
X11.5125Y-4.1875
X6.425Y-1.9375
X6.825Y-1.9375
X15.2375Y-3.4375
X15.6375Y-3.4375
X6.5187Y-4.1875
X6.9188Y-4.1875
T3
X10.8438Y-3.9125
X11.7812Y-3.9125
T4
X11.125Y-1.9375
X12.4375Y-4.1875
X7.375Y-1.9375
X15.4375Y-4.1875
X15.25Y-2.6875
X8.3125Y-2.6875
X13.9375Y-3.4375
X11.3125Y-2.6875
X13.1875Y-3.4375
X7.5625Y-2.6875
X10.5625Y-2.6875
X9.4375Y-3.4375
X12.4375Y-3.4375
X12.625Y-1.9375
X10.1875Y-3.4375
X8.125Y-1.9375
X13.9375Y-4.1875
X10.1875Y-4.1875
X12.8125Y-2.6875
X13.375Y-1.9375
X13.5625Y-2.6875
X9.0625Y-2.6875
X7.6562Y-4.1875
X14.3125Y-2.6875
X10.9375Y-3.4375
X9.625Y-1.9375
X14.6875Y-3.4375
X11.875Y-1.9375
X9.4375Y-4.1875
X15.1562Y-1.9375
X10.375Y-1.9375
X14.6875Y-4.1875
X8.875Y-1.9375
X8.6875Y-3.4375
X12.0625Y-2.6875
X14.125Y-1.9375
X6.7188Y-2.6875
X9.8125Y-2.6875
X8.5938Y-4.1875
X7.9375Y-3.4375
X6.9062Y-3.4375
X11.6875Y-3.4375
X10.8438Y-4.5125
X11.3125Y-4.1875
X11.7812Y-4.5125
X6.625Y-1.9375
X15.4375Y-3.4375
X6.7188Y-4.1875
T0
M30
