M48
; DRILL file {KiCad (5.1.4)-1} date 8/25/2024 3:46:26 PM
; FORMAT={-:-/ absolute / inch / decimal}
; #@! TF.CreationDate,2024-08-25T15:46:26-04:00
; #@! TF.GenerationSoftware,Kicad,Pcbnew,(5.1.4)-1
; #@! TF.FileFunction,Plated,1,2,PTH
FMAT,2
INCH
T1C0.0157
T2C0.0236
T3C0.0579
%
G90
G05
T1
X8.8Y-3.81
X9.55Y-3.78
X10.3Y-3.75
X11.48Y-3.72
X11.7Y-3.69
X12.55Y-3.64
X12.86Y-3.51
X12.975Y-3.75
X13.0Y-2.21
X13.0079Y-3.8504
X13.1Y-2.81
X13.13Y-4.47
X13.14Y-3.58
X13.17Y-2.81
X13.2047Y-3.0315
X13.27Y-3.03
X13.3Y-4.52
X13.33Y-4.38
X13.41Y-3.7
X13.4409Y-3.9528
X13.54Y-2.91
X13.5675Y-2.12
X13.59Y-4.26
X13.5925Y-1.8625
X13.6457Y-1.7638
X13.6625Y-1.9075
X13.8425Y-1.9075
X13.8474Y-1.7638
X13.87Y-3.06
X13.95Y-2.91
X14.21Y-3.61
X14.21Y-3.77
X14.27Y-3.61
X14.27Y-3.77
T3
X11.9125Y-2.5875
X12.1625Y-2.4875
X13.975Y-1.8375
X14.225Y-1.7375
X6.5687Y-2.5875
X6.8187Y-2.4875
X9.6625Y-2.5875
X9.9125Y-2.4875
X8.4437Y-4.0875
X8.6937Y-3.9875
X7.7875Y-3.3375
X8.0375Y-3.2375
X6.7562Y-3.3375
X7.0062Y-3.2375
X11.5375Y-3.3375
X11.7875Y-3.2375
X11.1625Y-4.0875
X11.4125Y-3.9875
X6.475Y-1.8375
X6.725Y-1.7375
X15.2875Y-3.3375
X15.5375Y-3.2375
X6.5687Y-4.0875
X6.8187Y-3.9875
X10.975Y-1.8375
X11.225Y-1.7375
X12.2875Y-4.0875
X12.5375Y-3.9875
X7.225Y-1.8375
X7.475Y-1.7375
X15.2875Y-4.0875
X15.5375Y-3.9875
X15.1Y-2.5875
X15.35Y-2.4875
X8.1625Y-2.5875
X8.4125Y-2.4875
X13.7875Y-3.3375
X14.0375Y-3.2375
X11.1625Y-2.5875
X11.4125Y-2.4875
X13.0375Y-3.3375
X13.2875Y-3.2375
X7.4125Y-2.5875
X7.6625Y-2.4875
X10.4125Y-2.5875
X10.6625Y-2.4875
X9.2875Y-3.3375
X9.5375Y-3.2375
X12.2875Y-3.3375
X12.5375Y-3.2375
X12.475Y-1.8375
X12.725Y-1.7375
X10.0375Y-3.3375
X10.2875Y-3.2375
X7.975Y-1.8375
X8.225Y-1.7375
X13.7875Y-4.0875
X14.0375Y-3.9875
X10.0375Y-4.0875
X10.2875Y-3.9875
X12.6625Y-2.5875
X12.9125Y-2.4875
X13.225Y-1.8375
X13.475Y-1.7375
X13.4125Y-2.5875
X13.6625Y-2.4875
X8.9125Y-2.5875
X9.1625Y-2.4875
X7.5062Y-4.0875
X7.7562Y-3.9875
X14.1625Y-2.5875
X14.4125Y-2.4875
X10.7875Y-3.3375
X11.0375Y-3.2375
X9.475Y-1.8375
X9.725Y-1.7375
X14.5375Y-3.3375
X14.7875Y-3.2375
X11.725Y-1.8375
X11.975Y-1.7375
X9.2875Y-4.0875
X9.5375Y-3.9875
X15.0062Y-1.8375
X15.2562Y-1.7375
X10.225Y-1.8375
X10.475Y-1.7375
X14.5375Y-4.0875
X14.7875Y-3.9875
X8.725Y-1.8375
X8.975Y-1.7375
X8.5375Y-3.3375
X8.7875Y-3.2375
T2
G00X13.5799Y-1.4506
M15
G01X13.5799Y-1.4742
M16
G05
G00X13.5799Y-1.6053
M15
G01X13.5799Y-1.6486
M16
G05
G00X13.9201Y-1.4506
M15
G01X13.9201Y-1.4742
M16
G05
G00X13.9201Y-1.6053
M15
G01X13.9201Y-1.6486
M16
G05
T0
M30
