G04 #@! TF.GenerationSoftware,KiCad,Pcbnew,(5.1.4)-1*
G04 #@! TF.CreationDate,2024-08-25T15:45:26-04:00*
G04 #@! TF.ProjectId,smolboi-pcb,736d6f6c-626f-4692-9d70-63622e6b6963,rev?*
G04 #@! TF.SameCoordinates,Original*
G04 #@! TF.FileFunction,Legend,Top*
G04 #@! TF.FilePolarity,Positive*
%FSLAX46Y46*%
G04 Gerber Fmt 4.6, Leading zero omitted, Abs format (unit mm)*
G04 Created by KiCad (PCBNEW (5.1.4)-1) date 2024-08-25 15:45:26*
%MOMM*%
%LPD*%
G04 APERTURE LIST*
%ADD10C,0.300000*%
G04 APERTURE END LIST*
D10*
X368083714Y-118209142D02*
X368226571Y-118280571D01*
X368512285Y-118280571D01*
X368655142Y-118209142D01*
X368726571Y-118066285D01*
X368726571Y-117994857D01*
X368655142Y-117852000D01*
X368512285Y-117780571D01*
X368298000Y-117780571D01*
X368155142Y-117709142D01*
X368083714Y-117566285D01*
X368083714Y-117494857D01*
X368155142Y-117352000D01*
X368298000Y-117280571D01*
X368512285Y-117280571D01*
X368655142Y-117352000D01*
X369369428Y-118280571D02*
X369369428Y-117280571D01*
X369369428Y-117423428D02*
X369440857Y-117352000D01*
X369583714Y-117280571D01*
X369798000Y-117280571D01*
X369940857Y-117352000D01*
X370012285Y-117494857D01*
X370012285Y-118280571D01*
X370012285Y-117494857D02*
X370083714Y-117352000D01*
X370226571Y-117280571D01*
X370440857Y-117280571D01*
X370583714Y-117352000D01*
X370655142Y-117494857D01*
X370655142Y-118280571D01*
X371583714Y-118280571D02*
X371440857Y-118209142D01*
X371369428Y-118137714D01*
X371298000Y-117994857D01*
X371298000Y-117566285D01*
X371369428Y-117423428D01*
X371440857Y-117352000D01*
X371583714Y-117280571D01*
X371798000Y-117280571D01*
X371940857Y-117352000D01*
X372012285Y-117423428D01*
X372083714Y-117566285D01*
X372083714Y-117994857D01*
X372012285Y-118137714D01*
X371940857Y-118209142D01*
X371798000Y-118280571D01*
X371583714Y-118280571D01*
X372940857Y-118280571D02*
X372798000Y-118209142D01*
X372726571Y-118066285D01*
X372726571Y-116780571D01*
X373512285Y-118280571D02*
X373512285Y-116780571D01*
X373512285Y-117352000D02*
X373655142Y-117280571D01*
X373940857Y-117280571D01*
X374083714Y-117352000D01*
X374155142Y-117423428D01*
X374226571Y-117566285D01*
X374226571Y-117994857D01*
X374155142Y-118137714D01*
X374083714Y-118209142D01*
X373940857Y-118280571D01*
X373655142Y-118280571D01*
X373512285Y-118209142D01*
X375083714Y-118280571D02*
X374940857Y-118209142D01*
X374869428Y-118137714D01*
X374798000Y-117994857D01*
X374798000Y-117566285D01*
X374869428Y-117423428D01*
X374940857Y-117352000D01*
X375083714Y-117280571D01*
X375298000Y-117280571D01*
X375440857Y-117352000D01*
X375512285Y-117423428D01*
X375583714Y-117566285D01*
X375583714Y-117994857D01*
X375512285Y-118137714D01*
X375440857Y-118209142D01*
X375298000Y-118280571D01*
X375083714Y-118280571D01*
X376226571Y-118280571D02*
X376226571Y-117280571D01*
X376226571Y-116780571D02*
X376155142Y-116852000D01*
X376226571Y-116923428D01*
X376298000Y-116852000D01*
X376226571Y-116780571D01*
X376226571Y-116923428D01*
X379012285Y-116780571D02*
X379512285Y-118280571D01*
X380012285Y-116780571D01*
X381298000Y-118280571D02*
X380440857Y-118280571D01*
X380869428Y-118280571D02*
X380869428Y-116780571D01*
X380726571Y-116994857D01*
X380583714Y-117137714D01*
X380440857Y-117209142D01*
X381940857Y-118137714D02*
X382012285Y-118209142D01*
X381940857Y-118280571D01*
X381869428Y-118209142D01*
X381940857Y-118137714D01*
X381940857Y-118280571D01*
X382940857Y-116780571D02*
X383083714Y-116780571D01*
X383226571Y-116852000D01*
X383298000Y-116923428D01*
X383369428Y-117066285D01*
X383440857Y-117352000D01*
X383440857Y-117709142D01*
X383369428Y-117994857D01*
X383298000Y-118137714D01*
X383226571Y-118209142D01*
X383083714Y-118280571D01*
X382940857Y-118280571D01*
X382798000Y-118209142D01*
X382726571Y-118137714D01*
X382655142Y-117994857D01*
X382583714Y-117709142D01*
X382583714Y-117352000D01*
X382655142Y-117066285D01*
X382726571Y-116923428D01*
X382798000Y-116852000D01*
X382940857Y-116780571D01*
X386298000Y-117852000D02*
X387012285Y-117852000D01*
X386155142Y-118280571D02*
X386655142Y-116780571D01*
X387155142Y-118280571D01*
X388298000Y-117280571D02*
X388298000Y-118280571D01*
X387655142Y-117280571D02*
X387655142Y-118066285D01*
X387726571Y-118209142D01*
X387869428Y-118280571D01*
X388083714Y-118280571D01*
X388226571Y-118209142D01*
X388298000Y-118137714D01*
X389655142Y-117280571D02*
X389655142Y-118494857D01*
X389583714Y-118637714D01*
X389512285Y-118709142D01*
X389369428Y-118780571D01*
X389155142Y-118780571D01*
X389012285Y-118709142D01*
X389655142Y-118209142D02*
X389512285Y-118280571D01*
X389226571Y-118280571D01*
X389083714Y-118209142D01*
X389012285Y-118137714D01*
X388940857Y-117994857D01*
X388940857Y-117566285D01*
X389012285Y-117423428D01*
X389083714Y-117352000D01*
X389226571Y-117280571D01*
X389512285Y-117280571D01*
X389655142Y-117352000D01*
X391012285Y-117280571D02*
X391012285Y-118280571D01*
X390369428Y-117280571D02*
X390369428Y-118066285D01*
X390440857Y-118209142D01*
X390583714Y-118280571D01*
X390798000Y-118280571D01*
X390940857Y-118209142D01*
X391012285Y-118137714D01*
X391655142Y-118209142D02*
X391798000Y-118280571D01*
X392083714Y-118280571D01*
X392226571Y-118209142D01*
X392298000Y-118066285D01*
X392298000Y-117994857D01*
X392226571Y-117852000D01*
X392083714Y-117780571D01*
X391869428Y-117780571D01*
X391726571Y-117709142D01*
X391655142Y-117566285D01*
X391655142Y-117494857D01*
X391726571Y-117352000D01*
X391869428Y-117280571D01*
X392083714Y-117280571D01*
X392226571Y-117352000D01*
X392726571Y-117280571D02*
X393298000Y-117280571D01*
X392940857Y-116780571D02*
X392940857Y-118066285D01*
X393012285Y-118209142D01*
X393155142Y-118280571D01*
X393298000Y-118280571D01*
X394869428Y-116923428D02*
X394940857Y-116852000D01*
X395083714Y-116780571D01*
X395440857Y-116780571D01*
X395583714Y-116852000D01*
X395655142Y-116923428D01*
X395726571Y-117066285D01*
X395726571Y-117209142D01*
X395655142Y-117423428D01*
X394798000Y-118280571D01*
X395726571Y-118280571D01*
X396655142Y-116780571D02*
X396798000Y-116780571D01*
X396940857Y-116852000D01*
X397012285Y-116923428D01*
X397083714Y-117066285D01*
X397155142Y-117352000D01*
X397155142Y-117709142D01*
X397083714Y-117994857D01*
X397012285Y-118137714D01*
X396940857Y-118209142D01*
X396798000Y-118280571D01*
X396655142Y-118280571D01*
X396512285Y-118209142D01*
X396440857Y-118137714D01*
X396369428Y-117994857D01*
X396298000Y-117709142D01*
X396298000Y-117352000D01*
X396369428Y-117066285D01*
X396440857Y-116923428D01*
X396512285Y-116852000D01*
X396655142Y-116780571D01*
X397726571Y-116923428D02*
X397798000Y-116852000D01*
X397940857Y-116780571D01*
X398298000Y-116780571D01*
X398440857Y-116852000D01*
X398512285Y-116923428D01*
X398583714Y-117066285D01*
X398583714Y-117209142D01*
X398512285Y-117423428D01*
X397655142Y-118280571D01*
X398583714Y-118280571D01*
X399869428Y-117280571D02*
X399869428Y-118280571D01*
X399512285Y-116709142D02*
X399155142Y-117780571D01*
X400083714Y-117780571D01*
M02*
